<svg width="32" height="32" viewBox="0 0 32 32" fill="none" xmlns="http://www.w3.org/2000/svg">
<path fill-rule="evenodd" clip-rule="evenodd" d="M12.3216 1.43751L4.71723 9.04186C10.0673 9.81719 12.7371 11.5274 22.1032 21.1633L23.1762 22.2363C23.2979 22.5449 23.2906 22.7422 23.2796 23.0365C23.2776 23.091 23.2754 23.1489 23.274 23.2115C23.2645 23.6114 23.0948 24.2523 22.933 24.6254C22.7713 24.9985 22.4792 25.3475 22.1897 25.6369C21.9003 25.9264 21.5513 26.2185 21.1782 26.3802L21.1697 26.3839C20.7997 26.5444 20.4415 26.6997 20.0446 26.7091C19.9803 26.7106 19.9136 26.7131 19.8454 26.7157L19.845 26.7158C19.49 26.7293 19.0959 26.7444 18.7891 26.6234C18.4236 26.4792 17.7013 26.1198 17.4245 25.8438L17.4236 25.8429L17.4227 25.842L16.8862 25.3055L6.42539 14.8447L6.42619 14.8439C6.25016 14.6678 6.11365 14.4557 6.02446 14.2196C5.93527 13.9835 5.89516 13.7281 5.9064 13.4679C5.91764 13.2077 5.98002 12.9478 6.08998 12.7031C6.19994 12.4585 6.35532 12.2337 6.54726 12.0418C6.73919 11.8499 6.96392 11.6945 7.20862 11.5845C7.45331 11.4746 7.71317 11.4122 7.97337 11.4009C8.23356 11.3897 8.489 11.4298 8.72509 11.519C8.96117 11.6082 9.17329 11.7447 9.34933 11.9207L9.35014 11.9199L20.0801 22.6499L20.3483 22.9181C20.3473 22.917 20.3473 22.9174 20.3481 22.9191C20.3489 22.9206 20.3502 22.923 20.3522 22.9264C20.3694 22.9569 20.4283 23.0608 20.4237 23.1672C20.419 23.2758 20.3921 23.3331 20.3516 23.4193C20.343 23.4376 20.3338 23.4572 20.3241 23.4788C20.3241 23.4788 20.2826 23.5356 20.1855 23.6327C20.0884 23.7298 19.9747 23.8084 19.8509 23.864C19.7271 23.9197 19.5956 23.9512 19.4639 23.9569C19.3323 23.9626 19.2031 23.9423 19.0836 23.8972C19.0097 23.8693 18.9405 23.8322 18.8773 23.7869L17.3007 22.2103L12.0698 16.9794L12.0738 16.9755C12.0215 16.9231 11.9809 16.86 11.9543 16.7898C11.9278 16.7196 11.9159 16.6436 11.9192 16.5662C11.9226 16.4888 11.9411 16.4115 11.9738 16.3387C12.0065 16.266 12.0528 16.1991 12.1098 16.142L12.1062 16.1384L12.4255 15.8263L11.6221 15.0229L11.3014 15.3336L11.1602 15.4849C11.0501 15.6201 10.9606 15.7712 10.8897 15.9292C10.7906 16.1495 10.7345 16.3835 10.7243 16.6178C10.7142 16.8521 10.7503 17.0821 10.8307 17.2947C10.8882 17.4471 10.9677 17.5884 11.0664 17.7146L11.0583 17.7228L11.1924 17.8569L18.0328 24.6972L18.0394 24.6905C18.2019 24.8236 18.386 24.9298 18.5857 25.0052C18.8455 25.1034 19.1267 25.1475 19.413 25.1352C19.6994 25.1228 19.9854 25.0541 20.2547 24.9331C20.524 24.8121 20.7714 24.6411 20.9826 24.4298C21.1939 24.2186 21.3649 23.9712 21.4859 23.7019C21.6069 23.4326 21.6756 23.1466 21.688 22.8602C21.7003 22.5739 21.6562 22.2927 21.558 22.0329C21.4826 21.8332 21.3764 21.6491 21.2433 21.4866L21.25 21.48L21.1159 21.3458L13.7132 13.9432C11.8253 12.0552 7.68165 10.0484 6.84783 10.0677C6.78629 10.0917 6.7252 10.1173 6.66462 10.1445C6.22393 10.3425 5.8192 10.6224 5.47352 10.9681C5.12785 11.3137 4.848 11.7185 4.64997 12.1592C4.45193 12.5998 4.33958 13.0679 4.31934 13.5365C4.29909 14.0051 4.37134 14.4651 4.53197 14.8903C4.69259 15.3155 4.93844 15.6975 5.25548 16.0146L15.7172 26.4763L16.5219 27.281L16.5328 27.2702C16.9285 27.6067 17.3785 27.8765 17.8665 28.069C18.4733 28.3083 19.127 28.4235 19.7903 28.4078C20.4536 28.3921 21.1135 28.246 21.7323 27.9777C22.3511 27.7094 22.9168 27.3242 23.3969 26.8441C23.877 26.364 24.2622 25.7984 24.5305 25.1795C24.7988 24.5607 24.9449 23.9008 24.9606 23.2375C24.9763 22.5742 24.8611 21.9205 24.6218 21.3137C24.3824 20.7069 24.0235 20.1588 23.5656 19.7009C14.9758 10.9713 12.7732 7.4366 12.3216 1.43751ZM17.0289 9.06958L17.9064 8.19216L19.2476 9.5334L18.3702 10.4108L18.1019 10.1426L16.932 11.3125L16.1273 10.5078L17.2972 9.33784L17.0289 9.06958Z" fill="#FFD335"/>
</svg>
