<svg xmlns="http://www.w3.org/2000/svg" xmlns:xlink="http://www.w3.org/1999/xlink" fill="none" viewBox="0 0 1906 1274">
  <defs>
    <path id="a" fill="#16171B" d="M906 12H660v246h246V12Z"/>
  </defs>
  <path fill="#2C3038" fill-rule="evenodd" d="M1 57C0 26 26 0 57 0h1793c31 0 56 25 56 56v1089c0 31-25 56-56 56H56c-31 0-56-25-56-56l3-242c0-31 25-56 56-56h31c31 0 56-25 56-56V395c0-31-25-56-56-56H60c-31 0-56-25-56-55L1 57Zm160 1012.5a49.5 49.5 0 1 1-99 0 49.5 49.5 0 0 1 99 0ZM110.5 165a49.5 49.5 0 1 0 0-99 49.5 49.5 0 0 0 0 99ZM1493 1071.5a49.5 49.5 0 1 1-99 0 49.5 49.5 0 0 1 99 0ZM1443.5 169a49.5 49.5 0 1 0 0-99 49.5 49.5 0 0 0 0 99Z" clip-rule="evenodd"/>
  <path fill="#D5D5D8" d="M139 360v459h614V360H139Z"/>
  <path fill="#2C3038" d="M0 367v446h747V367H0Z"/>
  <path fill="#FFEFB5" fill-rule="evenodd" d="M6 764v-62h65v-49H6v-65h65v-49H6V422h105v10H16v46h95v10H16v41h65v69H16v45h65v69H16v42h99v10H6Z" clip-rule="evenodd"/>
  <path fill="#DFCFC8" d="M136 393v65h66v-65h-66Z"/>
  <path fill="#FFEFB5" fill-rule="evenodd" d="M193 425a24 24 0 1 0-48 0 24 24 0 0 0 48 0Zm-4 0a20 20 0 1 0-40 0 20 20 0 0 0 40 0Z" clip-rule="evenodd"/>
  <path fill="#FFEFB5" d="M177 426a7.5 7.5 0 1 0-15 0 7.5 7.5 0 0 0 15 0Z"/>
  <path fill="#FFEBA2" d="M708 346v34h23v-34h-23Zm-30 0v34h23v-34h-23Zm-30 0v34h23v-34h-23Zm-29 0v34h23v-34h-23Zm-29 0v34h23v-34h-23Zm-31 0v34h23v-34h-23Zm-30 0v34h23v-34h-23Zm-30 0v34h23v-34h-23Zm-30 0v34h23v-34h-23Zm-30 0v34h23v-34h-23Zm-31 0v34h23v-34h-23Zm-29 0v34h23v-34h-23Zm-30 0v34h23v-34h-23Zm-31 0v34h23v-34h-23Zm-28 0v34h23v-34h-23Zm-30 0v34h23v-34h-23Zm-30 0v34h23v-34h-23Zm-30 0v34h23v-34h-23Zm-29 0v34h23v-34h-23Zm537 450v34h23v-34h-23Zm-30 0v34h23v-34h-23Zm-30 0v34h23v-34h-23Zm-29 0v34h23v-34h-23Zm-29 0v34h23v-34h-23Zm-31 0v34h23v-34h-23Zm-30 0v34h23v-34h-23Zm-30 0v34h23v-34h-23Zm-30 0v34h23v-34h-23Zm-30 0v34h23v-34h-23Zm-31 0v34h23v-34h-23Zm-29 0v34h23v-34h-23Zm-30 0v34h23v-34h-23Zm-31 0v34h23v-34h-23Zm-28 0v34h23v-34h-23Zm-30 0v34h23v-34h-23Zm-30 0v34h23v-34h-23Zm-30 0v34h23v-34h-23Zm-30 0v34h23v-34h-23Z"/>
  <path fill="#D5D6D1" d="M225 786V393h506v393H225Zm-74 0V529h74v257h-74Z"/>
  <path fill="#F3C37C" fill-rule="evenodd" d="M1450 204a79 79 0 1 0 0-158 79 79 0 0 0 0 158Zm0-32a47 47 0 1 0 0-94 47 47 0 0 0 0 94ZM118 1155a79 79 0 1 0 0-158 79 79 0 0 0 0 158Zm0-32a47 47 0 1 0 0-94 47 47 0 0 0 0 94Zm-1-919a79 79 0 1 0 0-158 79 79 0 0 0 0 158Zm0-32a47 47 0 1 0 0-94 47 47 0 0 0 0 94Zm1333 983a79 79 0 1 0 0-158 79 79 0 0 0 0 158Zm0-32a47 47 0 1 0 0-94 47 47 0 0 0 0 94Z" clip-rule="evenodd"/>
  <path fill="#0D1012" d="M648 100V65l-18-15-330.5 1.5L283 65v35l16.5 13 330.5-1 18-12Z"/>
  <path fill="#F3C37C" d="M311 66v32h27V66h-27Zm53 0v32h26V66h-26Zm58 0v32h26V66h-26Zm57 0v32h27V66h-27Zm61 0v32h27V66h-27Zm53 0v32h26V66h-26Z"/>
  <use xlink:href="#a"/>
  <use xlink:href="#a"/>
  <path fill="#16171B" d="M906 12H660v246h246V12Zm189 92H962v154h133V104Z"/>
  <path fill="#16171B" d="M1095 104H962v154h133V104ZM693 1135h-60v139h60v-139Zm1057-648h-229v227h229V487Z"/>
  <path fill="#16171B" d="M1750 487h-229v227h229V487Z"/>
  <path fill="#5E6066" d="M1690 952c0-25 20-45 45-45h126c25 0 45 20 45 45v204c0 25-20 45-45 45h-126c-25 0-45-20-45-45V952Zm0-907c0-25 20-45 45-45h126c25 0 45 20 45 45v204c0 25-20 45-45 45h-126c-25 0-45-20-45-45V45Z"/>
  <path fill="#C4C4C4" d="M1048 425c0-23 18-41 41-41h110c23 0 41 18 41 41v114c0 23-18 41-41 41h-110c-23 0-41-18-41-41V425Zm227 0c0-23 18-41 41-41h110c23 0 41 18 41 41v114c0 23-18 41-41 41h-110c-23 0-41-18-41-41V425Zm-227 217c0-23 18-41 41-41h110c23 0 41 18 41 41v114c0 23-18 41-41 41h-110c-23 0-41-18-41-41V642Zm227 0c0-23 18-41 41-41h110c23 0 41 18 41 41v114c0 23-18 41-41 41h-110c-23 0-41-18-41-41V642Z"/>
  <path fill="#F3C37C" d="M1832 86a34.9 34.9 0 0 1-49.8 36.9 34.9 34.9 0 0 1-7-58.6A35 35 0 0 1 1832 86Zm6 130a34.9 34.9 0 0 1-49.8 36.9 34.9 34.9 0 0 1-7-58.6A35 35 0 0 1 1838 216Z"/>
  <path fill="#F3C37C" d="M1838 216a34.9 34.9 0 0 1-49.8 36.9 34.9 34.9 0 0 1-7-58.6A35 35 0 0 1 1838 216Zm-3 774a34.9 34.9 0 0 1-49.8 36.9A34.8 34.8 0 0 1 1766 989a35 35 0 0 1 69 1Z"/>
  <path fill="#F3C37C" d="M1835 990a34.9 34.9 0 0 1-49.8 36.9A34.8 34.8 0 0 1 1766 989a35 35 0 0 1 69 1Zm6 130a34.9 34.9 0 0 1-49.8 36.9 34.8 34.8 0 0 1-19.2-37.9 35 35 0 0 1 69 1Z"/>
  <path fill="#D5D5D8" d="M408 1115v93h141v-93H408Zm182-12v119h302v-119H590Zm334-111v230h235V992H924Z"/>
  <path fill="#16171B" d="M1159 992H924v28h235v-28Zm-98 61a18 18 0 1 1-36 0 18 18 0 0 1 36 0ZM384 907H253v131h131V907Z"/>
  <path fill="#16171B" d="M384 907H253v131h131V907Z"/>
  <path fill="#FFEBA2" d="M384 923v18h10v-18h-10Zm0 40v18h10v-18h-10Zm0 40v18h10v-18h-10Z"/>
  <path fill="#D9D9D9" d="M364 973a45.5 45.5 0 1 1-91 0 45.5 45.5 0 0 1 91 0Z"/>
  <path fill="#FFEBA2" d="M243 1003v18h10v-18h-10Zm0-40v18h10v-18h-10Zm0-40v18h10v-18h-10Z"/>
  <path fill="#F3C37C" d="M243 287v-66h12v27l2 7c1 2 3 3 6 3l5-2c2-1 3-3 3-5l1-9v-21h13v31l1 4 3 1h2v10h-1a22 22 0 0 1-5 1l-7-2-4-5h-1l-2 4-4 2-4 1-6-2-2-2v23h-12Zm107-81-21 61h-12l-22-61h10l18 49 17-49h10Zm22 62c-4 0-8-1-11-3s-6-4-7-8c-2-3-3-7-3-12l3-12a19 19 0 0 1 18-11c4 0 8 1 11 3s5 4 7 8c2 3 2 7 2 12s0 9-2 12l-7 8c-3 2-7 3-11 3Zm0-8 6-2 3-5 1-8-1-7c0-3-1-5-3-6l-6-2-6 2-4 5-1 8 1 7 4 6 6 2Zm68 7h-11l-12-16-11 16h-11l16-23-15-21h11l10 14 10-14h11l-15 21 17 23Z"/>
</svg>
