<svg width="1908" height="1616" viewBox="0 0 1908 1616" fill="none" xmlns="http://www.w3.org/2000/svg">
<g id="AI-Thinker Audio board">
<g id="AI-Thinker Audio board_2">
<g id="Group 1">
<g id="Base">
<g id="Board base with holes" filter="url(#filter0_d_5_8)">
<path fill-rule="evenodd" clip-rule="evenodd" d="M124 132H1796V1526H124V132ZM224 1461C224 1479.23 209.225 1494 191 1494C172.775 1494 158 1479.23 158 1461C158 1442.77 172.775 1428 191 1428C209.225 1428 224 1442.77 224 1461ZM1729 230C1747.23 230 1762 215.225 1762 197C1762 178.775 1747.23 164 1729 164C1710.77 164 1696 178.775 1696 197C1696 215.225 1710.77 230 1729 230ZM224 197C224 215.225 209.225 230 191 230C172.775 230 158 215.225 158 197C158 178.775 172.775 164 191 164C209.225 164 224 178.775 224 197ZM1729 1494C1747.23 1494 1762 1479.23 1762 1461C1762 1442.77 1747.23 1428 1729 1428C1710.77 1428 1696 1442.77 1696 1461C1696 1479.23 1710.77 1494 1729 1494Z" fill="#2C3038"/>
</g>
<g id="Mounting hole backgrounds">
<path id="Subtract" fill-rule="evenodd" clip-rule="evenodd" d="M191 1516C221.376 1516 246 1491.38 246 1461C246 1430.62 221.376 1406 191 1406C160.624 1406 136 1430.62 136 1461C136 1491.38 160.624 1516 191 1516ZM191 1494C209.225 1494 224 1479.23 224 1461C224 1442.77 209.225 1428 191 1428C172.775 1428 158 1442.77 158 1461C158 1479.23 172.775 1494 191 1494Z" fill="#F3C37C"/>
<path id="Subtract_2" fill-rule="evenodd" clip-rule="evenodd" d="M1729 252C1759.38 252 1784 227.376 1784 197C1784 166.624 1759.38 142 1729 142C1698.62 142 1674 166.624 1674 197C1674 227.376 1698.62 252 1729 252ZM1729 230C1747.23 230 1762 215.225 1762 197C1762 178.775 1747.23 164 1729 164C1710.77 164 1696 178.775 1696 197C1696 215.225 1710.77 230 1729 230Z" fill="#F3C37C"/>
<path id="Subtract_3" fill-rule="evenodd" clip-rule="evenodd" d="M191 252C221.376 252 246 227.376 246 197C246 166.624 221.376 142 191 142C160.624 142 136 166.624 136 197C136 227.376 160.624 252 191 252ZM191 230C209.225 230 224 215.225 224 197C224 178.775 209.225 164 191 164C172.775 164 158 178.775 158 197C158 215.225 172.775 230 191 230Z" fill="#F3C37C"/>
<path id="Subtract_4" fill-rule="evenodd" clip-rule="evenodd" d="M1729 1516C1759.38 1516 1784 1491.38 1784 1461C1784 1430.62 1759.38 1406 1729 1406C1698.62 1406 1674 1430.62 1674 1461C1674 1491.38 1698.62 1516 1729 1516ZM1729 1494C1747.23 1494 1762 1479.23 1762 1461C1762 1442.77 1747.23 1428 1729 1428C1710.77 1428 1696 1442.77 1696 1461C1696 1479.23 1710.77 1494 1729 1494Z" fill="#F3C37C"/>
</g>
</g>
</g>
<g id="__ESP">
<rect id="ESP32 Border" x="727" y="6" width="398" height="655" fill="#D5D5D8"/>
<g id="ESP32" filter="url(#filter1_d_5_8)">
<rect x="732" y="6" width="388" height="650" fill="#2C3038"/>
</g>
<path id="PCB_Antenna" d="M778.5 106V16H824V72H875V16H923V72H974.5V16H1019M1019 16V102.5M1019 16H1067.5V102.5" stroke="#FFEFB5" stroke-width="10"/>
<g id="Antenna Conn">
<rect id="Rectangle 5" x="1041" y="124" width="56" height="58" fill="#DFCFC8"/>
<path id="ring" fill-rule="evenodd" clip-rule="evenodd" d="M1069 174C1080.6 174 1090 164.598 1090 153C1090 141.402 1080.6 132 1069 132C1057.4 132 1048 141.402 1048 153C1048 164.598 1057.4 174 1069 174ZM1069 170C1078.39 170 1086 162.389 1086 153C1086 143.611 1078.39 136 1069 136C1059.61 136 1052 143.611 1052 153C1052 162.389 1059.61 170 1069 170Z" fill="#FFEFB5"/>
<circle id="Ellipse 9" cx="1068.5" cy="153.5" r="6.5" fill="#FFEFB5"/>
</g>
<g id="pins right">
<rect id="__esp_gnd_3" x="1108" y="622" width="30" height="20" fill="#FFEBA2"/>
<rect id="__esp_[AC101]LINEINR" x="1108" y="596" width="30" height="20" fill="#FFEBA2"/>
<rect id="__esp_[AC101]LINEINL" x="1108" y="570" width="30" height="20" fill="#FFEBA2"/>
<rect id="__esp_[AC101]SPORP" x="1108" y="544" width="30" height="20" fill="#FFEBA2"/>
<rect id="__esp_[AC101]SPORN" x="1108" y="519" width="30" height="20" fill="#FFEBA2"/>
<rect id="__esp_[AC101]SPOLP" x="1108" y="492" width="30" height="20" fill="#FFEBA2"/>
<rect id="__esp_[AC101]SPOLN" x="1108" y="466" width="30" height="20" fill="#FFEBA2"/>
<rect id="__esp_[AC101]HPOUTL" x="1108" y="440" width="30" height="20" fill="#FFEBA2"/>
<rect id="__esp_[AC101]HPOUTR" x="1108" y="414" width="30" height="20" fill="#FFEBA2"/>
<rect id="__esp_5" x="1108" y="388" width="30" height="20" fill="#FFEBA2"/>
<rect id="__esp_18" x="1108" y="361" width="30" height="20" fill="#FFEBA2"/>
<rect id="__esp_23" x="1108" y="336" width="30" height="20" fill="#FFEBA2"/>
<rect id="__esp_19" x="1108" y="310" width="30" height="20" fill="#FFEBA2"/>
<rect id="__esp_22" x="1108" y="283" width="30" height="20" fill="#FFEBA2"/>
<rect id="__esp_21" x="1108" y="258" width="30" height="20" fill="#FFEBA2"/>
<rect id="__esp_en" x="1108" y="232" width="30" height="20" fill="#FFEBA2"/>
<rect id="__esp_1" x="1108" y="206" width="30" height="20" fill="#FFEBA2"/>
<rect id="__esp_3" x="1108" y="180" width="30" height="20" fill="#FFEBA2"/>
<rect id="__esp_gnd_2" x="1108" y="155" width="30" height="20" fill="#FFEBA2"/>
</g>
<g id="pins left">
<rect id="__esp_gnd_1" x="717" y="622" width="30" height="20" fill="#FFEBA2"/>
<rect id="__esp_[AC101]MIC1N" x="717" y="596" width="30" height="20" fill="#FFEBA2"/>
<rect id="__esp_[AC101]MIC1P" x="717" y="570" width="30" height="20" fill="#FFEBA2"/>
<rect id="__esp_[AC101]MBIAS" x="717" y="544" width="30" height="20" fill="#FFEBA2"/>
<rect id="__esp_[AC101]MIC2P" x="717" y="519" width="30" height="20" fill="#FFEBA2"/>
<rect id="__esp_[AC101]MIC2N" x="717" y="492" width="30" height="20" fill="#FFEBA2"/>
<rect id="__esp_[AC101]HBIAS" x="717" y="466" width="30" height="20" fill="#FFEBA2"/>
<rect id="__esp_4" x="717" y="440" width="30" height="20" fill="#FFEBA2"/>
<rect id="__esp_2" x="717" y="414" width="30" height="20" fill="#FFEBA2"/>
<rect id="__esp_15" x="717" y="388" width="30" height="20" fill="#FFEBA2"/>
<rect id="__esp_13" x="717" y="361" width="30" height="20" fill="#FFEBA2"/>
<rect id="__esp_12" x="717" y="336" width="30" height="20" fill="#FFEBA2"/>
<rect id="__esp_14" x="717" y="310" width="30" height="20" fill="#FFEBA2"/>
<rect id="__esp_0" x="717" y="283" width="30" height="20" fill="#FFEBA2"/>
<rect id="__esp_34" x="717" y="258" width="30" height="20" fill="#FFEBA2"/>
<rect id="__esp_36" x="717" y="232" width="30" height="20" fill="#FFEBA2"/>
<rect id="__esp_39" x="717" y="206" width="30" height="20" fill="#FFEBA2"/>
<rect id="__esp_3.3" x="717" y="180" width="30" height="20" fill="#FFEBA2"/>
<rect id="__esp_gnd_0" x="717" y="154" width="30" height="20" fill="#FFEBA2"/>
</g>
<g id="Shield">
<path d="M755 202H1097V642H755V202Z" fill="#D5D6D1"/>
<path d="M755 137H979V202H755V137Z" fill="#D5D6D1"/>
</g>
<path id="ESP32-A1S" d="M822 468.569H789.879V446.172H796.184V460.805H802.771V447.317H809.092V460.805H815.695V446.172H822V468.569ZM799.509 423.947C798.359 424.052 797.465 424.517 796.827 425.343C796.179 426.159 795.854 427.325 795.854 428.841C795.854 429.845 795.985 430.681 796.247 431.35C796.508 432.02 796.869 432.521 797.329 432.856C797.778 433.191 798.296 433.363 798.882 433.374C799.362 433.395 799.786 433.3 800.152 433.091C800.518 432.872 800.842 432.558 801.124 432.15C801.396 431.732 801.637 431.23 801.846 430.645C802.055 430.059 802.238 429.4 802.395 428.668L803.022 425.908C803.367 424.319 803.827 422.918 804.402 421.705C804.977 420.481 805.662 419.457 806.457 418.631C807.252 417.794 808.167 417.161 809.202 416.733C810.237 416.304 811.397 416.084 812.684 416.074C814.712 416.084 816.453 416.597 817.906 417.611C819.36 418.625 820.473 420.084 821.247 421.987C822.021 423.879 822.408 426.164 822.408 428.841C822.408 431.528 822.005 433.87 821.2 435.867C820.395 437.865 819.172 439.417 817.53 440.526C815.888 441.634 813.813 442.204 811.303 442.235V434.801C812.339 434.738 813.201 434.461 813.891 433.97C814.581 433.478 815.104 432.804 815.46 431.946C815.815 431.079 815.993 430.075 815.993 428.935C815.993 427.889 815.852 427.001 815.569 426.269C815.287 425.526 814.895 424.956 814.393 424.559C813.891 424.162 813.316 423.958 812.668 423.947C812.061 423.958 811.544 424.146 811.115 424.512C810.676 424.878 810.3 425.443 809.986 426.206C809.662 426.959 809.364 427.921 809.092 429.092L808.308 432.448C807.67 435.23 806.64 437.42 805.218 439.02C803.785 440.62 801.851 441.414 799.415 441.404C797.428 441.414 795.687 440.881 794.192 439.804C792.697 438.727 791.531 437.237 790.694 435.334C789.858 433.431 789.44 431.262 789.44 428.825C789.44 426.337 789.863 424.177 790.71 422.348C791.547 420.507 792.723 419.08 794.239 418.066C795.755 417.052 797.512 416.534 799.509 416.513V423.947ZM822 412.153H789.879V398.884C789.879 396.479 790.349 394.404 791.29 392.657C792.221 390.901 793.523 389.547 795.196 388.595C796.858 387.644 798.793 387.168 800.999 387.168C803.216 387.168 805.155 387.654 806.818 388.627C808.47 389.589 809.751 390.964 810.66 392.752C811.57 394.54 812.025 396.662 812.025 399.119V407.307H805.908V400.562C805.908 399.391 805.704 398.414 805.296 397.629C804.889 396.835 804.319 396.233 803.587 395.826C802.844 395.418 801.982 395.214 800.999 395.214C800.006 395.214 799.148 395.418 798.427 395.826C797.695 396.233 797.13 396.835 796.733 397.629C796.335 398.424 796.137 399.402 796.137 400.562V404.389H822V412.153ZM822.439 371.186C822.439 373.633 822.021 375.802 821.184 377.695C820.337 379.577 819.172 381.062 817.687 382.149C816.202 383.237 814.493 383.791 812.558 383.812V376.001C813.259 375.97 813.881 375.745 814.425 375.326C814.958 374.908 815.376 374.338 815.679 373.617C815.983 372.895 816.134 372.075 816.134 371.154C816.134 370.234 815.972 369.424 815.648 368.723C815.313 368.012 814.858 367.458 814.283 367.061C813.698 366.664 813.029 366.47 812.276 366.481C811.523 366.47 810.854 366.684 810.268 367.124C809.683 367.563 809.228 368.185 808.904 368.99C808.58 369.785 808.417 370.726 808.417 371.813V374.934H802.897V371.813C802.897 370.862 802.74 370.025 802.426 369.304C802.112 368.572 801.673 368.002 801.109 367.594C800.534 367.186 799.875 366.988 799.132 366.998C798.411 366.988 797.778 367.16 797.235 367.516C796.68 367.861 796.252 368.347 795.949 368.974C795.645 369.591 795.494 370.308 795.494 371.123C795.494 371.981 795.645 372.759 795.949 373.46C796.252 374.15 796.68 374.699 797.235 375.107C797.789 375.515 798.432 375.729 799.164 375.75V383.169C797.25 383.148 795.567 382.614 794.114 381.569C792.65 380.523 791.505 379.101 790.679 377.303C789.853 375.494 789.44 373.434 789.44 371.123C789.44 368.823 789.842 366.8 790.647 365.053C791.452 363.307 792.55 361.948 793.941 360.975C795.321 360.003 796.884 359.517 798.631 359.517C800.439 359.506 801.929 360.097 803.101 361.289C804.272 362.471 804.993 363.992 805.265 365.853H805.516C805.809 363.365 806.614 361.488 807.931 360.223C809.249 358.947 810.896 358.314 812.872 358.325C814.733 358.325 816.385 358.874 817.828 359.972C819.26 361.059 820.39 362.575 821.216 364.52C822.031 366.454 822.439 368.676 822.439 371.186ZM822 353.945H816.416L806.159 342.229C805.364 341.351 804.638 340.603 803.979 339.986C803.31 339.369 802.64 338.899 801.971 338.575C801.292 338.25 800.554 338.088 799.76 338.088C798.871 338.088 798.113 338.282 797.486 338.669C796.848 339.055 796.356 339.589 796.011 340.268C795.666 340.948 795.494 341.727 795.494 342.605C795.494 343.494 795.677 344.273 796.043 344.942C796.398 345.611 796.916 346.134 797.595 346.511C798.275 346.877 799.101 347.06 800.074 347.06V354.416C797.888 354.416 796.001 353.924 794.412 352.941C792.822 351.958 791.599 350.578 790.741 348.801C789.874 347.013 789.44 344.937 789.44 342.574C789.44 340.138 789.847 338.02 790.663 336.222C791.479 334.423 792.618 333.033 794.082 332.05C795.536 331.057 797.224 330.56 799.148 330.56C800.372 330.56 801.584 330.806 802.787 331.297C803.989 331.788 805.317 332.672 806.771 333.948C808.224 335.213 809.965 337.011 811.993 339.343L815.538 343.186H815.742V330.168H822V353.945ZM802.991 310.3H808.888V325.168H802.991V310.3ZM822 297.937V306.281L789.879 295.443V285.107L822 274.269V282.613L797.972 290.157V290.408L822 297.937ZM809.359 299.05V281.61H815.256V299.05H809.359ZM789.879 257.53H822V265.278H797.125V265.467L801.516 272.65H794.804L789.879 264.729V257.53ZM799.509 233.004C798.359 233.109 797.465 233.574 796.827 234.4C796.179 235.216 795.854 236.382 795.854 237.898C795.854 238.902 795.985 239.738 796.247 240.407C796.508 241.076 796.869 241.578 797.329 241.913C797.778 242.247 798.296 242.42 798.882 242.43C799.362 242.451 799.786 242.357 800.152 242.148C800.518 241.929 800.842 241.615 801.124 241.207C801.396 240.789 801.637 240.287 801.846 239.701C802.055 239.116 802.238 238.457 802.395 237.725L803.022 234.965C803.367 233.375 803.827 231.974 804.402 230.761C804.977 229.538 805.662 228.513 806.457 227.687C807.252 226.851 808.167 226.218 809.202 225.79C810.237 225.361 811.397 225.141 812.684 225.131C814.712 225.141 816.453 225.654 817.906 226.668C819.36 227.682 820.473 229.141 821.247 231.044C822.021 232.936 822.408 235.221 822.408 237.898C822.408 240.585 822.005 242.927 821.2 244.924C820.395 246.921 819.172 248.474 817.53 249.582C815.888 250.691 813.813 251.261 811.303 251.292V243.858C812.339 243.795 813.201 243.518 813.891 243.026C814.581 242.535 815.104 241.861 815.46 241.003C815.815 240.135 815.993 239.132 815.993 237.992C815.993 236.946 815.852 236.057 815.569 235.326C815.287 234.583 814.895 234.013 814.393 233.616C813.891 233.219 813.316 233.015 812.668 233.004C812.061 233.015 811.544 233.203 811.115 233.569C810.676 233.935 810.3 234.499 809.986 235.263C809.662 236.016 809.364 236.978 809.092 238.149L808.308 241.505C807.67 244.286 806.64 246.477 805.218 248.077C803.785 249.677 801.851 250.471 799.415 250.461C797.428 250.471 795.687 249.938 794.192 248.861C792.697 247.784 791.531 246.294 790.694 244.391C789.858 242.488 789.44 240.318 789.44 237.882C789.44 235.393 789.863 233.234 790.71 231.404C791.547 229.564 792.723 228.137 794.239 227.123C795.755 226.108 797.512 225.591 799.509 225.57V233.004Z" fill="#A6A094"/>
<path id="WiFi+BT Soc Inside" d="M1055 596.923L1025.91 605.247V598.528L1046.12 593.713V593.472L1025.91 588.159V582.406L1046.16 577.108V576.852L1025.91 572.037V565.318L1055 573.642V579.636L1035.98 585.176V585.403L1055 590.929V596.923ZM1055 562.14H1033.18V556.089H1055V562.14ZM1030.37 559.1C1030.37 560 1030.07 560.772 1029.47 561.415C1028.87 562.05 1028.14 562.367 1027.3 562.367C1026.47 562.367 1025.75 562.05 1025.16 561.415C1024.55 560.772 1024.25 560 1024.25 559.1C1024.25 558.201 1024.55 557.433 1025.16 556.799C1025.75 556.155 1026.47 555.833 1027.3 555.833C1028.14 555.833 1028.87 556.155 1029.47 556.799C1030.07 557.433 1030.37 558.201 1030.37 559.1ZM1055 551.128H1025.91V531.866H1030.98V544.977H1037.91V533.145H1042.98V544.977H1055V551.128ZM1055 527.843H1033.18V521.792H1055V527.843ZM1030.37 524.803C1030.37 525.703 1030.07 526.475 1029.47 527.119C1028.87 527.753 1028.14 528.07 1027.3 528.07C1026.47 528.07 1025.75 527.753 1025.16 527.119C1024.55 526.475 1024.25 525.703 1024.25 524.803C1024.25 523.904 1024.55 523.137 1025.16 522.502C1025.75 521.858 1026.47 521.536 1027.3 521.536C1028.14 521.536 1028.87 521.858 1029.47 522.502C1030.07 523.137 1030.37 523.904 1030.37 524.803ZM1053.42 508.308H1033.31V503.223H1053.42V508.308ZM1045.91 515.822H1040.82V495.709H1045.91V515.822ZM1055 489.643H1025.91V477.996C1025.91 475.856 1026.23 474.071 1026.86 472.641C1027.5 471.211 1028.38 470.136 1029.5 469.416C1030.62 468.696 1031.91 468.337 1033.37 468.337C1034.5 468.337 1035.5 468.564 1036.36 469.018C1037.22 469.473 1037.92 470.098 1038.47 470.893C1039.01 471.679 1039.39 472.579 1039.62 473.592H1039.9C1039.95 472.484 1040.26 471.447 1040.84 470.482C1041.42 469.506 1042.23 468.715 1043.27 468.109C1044.3 467.503 1045.53 467.2 1046.96 467.2C1048.5 467.2 1049.88 467.584 1051.09 468.351C1052.3 469.108 1053.25 470.231 1053.95 471.717C1054.65 473.204 1055 475.036 1055 477.214V489.643ZM1049.97 483.493V478.479C1049.97 476.765 1049.64 475.515 1048.99 474.729C1048.33 473.943 1047.45 473.55 1046.35 473.55C1045.54 473.55 1044.83 473.744 1044.22 474.132C1043.6 474.52 1043.12 475.074 1042.77 475.794C1042.42 476.504 1042.24 477.352 1042.24 478.337V483.493H1049.97ZM1038.08 483.493V478.933C1038.08 478.09 1037.94 477.342 1037.64 476.689C1037.34 476.026 1036.91 475.505 1036.36 475.126C1035.81 474.738 1035.16 474.544 1034.39 474.544C1033.34 474.544 1032.49 474.918 1031.85 475.666C1031.2 476.405 1030.88 477.456 1030.88 478.82V483.493H1038.08ZM1030.98 464.306H1025.91V440.414H1030.98V449.32H1055V455.4H1030.98V464.306ZM1034.28 411.44C1033.13 411.554 1032.24 412.042 1031.61 412.903C1030.97 413.765 1030.65 414.935 1030.65 416.412C1030.65 417.416 1030.8 418.263 1031.08 418.955C1031.35 419.646 1031.74 420.176 1032.23 420.545C1032.72 420.905 1033.28 421.085 1033.91 421.085C1034.43 421.104 1034.88 420.995 1035.27 420.759C1035.66 420.512 1035.99 420.176 1036.28 419.75C1036.55 419.324 1036.79 418.831 1037 418.273C1037.2 417.714 1037.37 417.117 1037.51 416.483L1038.14 413.869C1038.42 412.6 1038.8 411.436 1039.28 410.375C1039.75 409.314 1040.33 408.396 1041.02 407.619C1041.71 406.843 1042.53 406.241 1043.47 405.815C1044.4 405.38 1045.48 405.157 1046.69 405.148C1048.47 405.157 1050.01 405.612 1051.32 406.511C1052.62 407.402 1053.63 408.689 1054.35 410.375C1055.06 412.051 1055.41 414.073 1055.41 416.44C1055.41 418.789 1055.05 420.834 1054.33 422.577C1053.61 424.31 1052.55 425.664 1051.14 426.639C1049.72 427.605 1047.96 428.112 1045.87 428.159V422.207C1046.84 422.141 1047.66 421.862 1048.31 421.369C1048.95 420.867 1049.44 420.2 1049.77 419.366C1050.09 418.524 1050.26 417.572 1050.26 416.511C1050.26 415.47 1050.1 414.565 1049.8 413.798C1049.5 413.022 1049.08 412.42 1048.54 411.994C1048 411.568 1047.38 411.355 1046.68 411.355C1046.02 411.355 1045.47 411.549 1045.03 411.938C1044.58 412.316 1044.2 412.875 1043.89 413.614C1043.58 414.343 1043.3 415.238 1043.04 416.298L1042.24 419.466C1041.65 421.919 1040.71 423.855 1039.45 425.276C1038.18 426.696 1036.47 427.402 1034.32 427.392C1032.56 427.402 1031.02 426.933 1029.7 425.986C1028.39 425.029 1027.36 423.718 1026.62 422.051C1025.88 420.384 1025.51 418.491 1025.51 416.369C1025.51 414.21 1025.88 412.326 1026.62 410.716C1027.36 409.097 1028.39 407.837 1029.7 406.938C1031.02 406.038 1032.54 405.574 1034.28 405.545V411.44ZM1055.43 391.266C1055.43 393.473 1054.96 395.381 1054.02 396.991C1053.07 398.591 1051.76 399.827 1050.07 400.698C1048.38 401.569 1046.41 402.005 1044.18 402.005C1041.92 402.005 1039.95 401.569 1038.27 400.698C1036.57 399.827 1035.26 398.591 1034.32 396.991C1033.37 395.381 1032.9 393.473 1032.9 391.266C1032.9 389.06 1033.37 387.156 1034.32 385.556C1035.26 383.946 1036.57 382.706 1038.27 381.835C1039.95 380.963 1041.92 380.528 1044.18 380.528C1046.41 380.528 1048.38 380.963 1050.07 381.835C1051.76 382.706 1053.07 383.946 1054.02 385.556C1054.96 387.156 1055.43 389.06 1055.43 391.266ZM1050.74 391.238C1050.74 390.234 1050.45 389.396 1049.89 388.724C1049.31 388.051 1048.52 387.545 1047.53 387.204C1046.53 386.853 1045.4 386.678 1044.13 386.678C1042.86 386.678 1041.73 386.853 1040.74 387.204C1039.74 387.545 1038.96 388.051 1038.38 388.724C1037.8 389.396 1037.51 390.234 1037.51 391.238C1037.51 392.251 1037.8 393.103 1038.38 393.795C1038.96 394.477 1039.74 394.993 1040.74 395.343C1041.73 395.684 1042.86 395.854 1044.13 395.854C1045.4 395.854 1046.53 395.684 1047.53 395.343C1048.52 394.993 1049.31 394.477 1049.89 393.795C1050.45 393.103 1050.74 392.251 1050.74 391.238ZM1055.43 366.735C1055.43 368.97 1054.95 370.892 1054.01 372.502C1053.05 374.103 1051.72 375.334 1050.03 376.195C1048.33 377.048 1046.38 377.474 1044.18 377.474C1041.94 377.474 1039.98 377.043 1038.3 376.181C1036.6 375.31 1035.28 374.074 1034.33 372.474C1033.38 370.873 1032.9 368.97 1032.9 366.763C1032.9 364.86 1033.24 363.193 1033.93 361.763C1034.63 360.334 1035.6 359.202 1036.85 358.369C1038.1 357.535 1039.56 357.076 1041.25 356.991V362.701C1040.16 362.862 1039.29 363.288 1038.62 363.979C1037.95 364.661 1037.61 365.556 1037.61 366.664C1037.61 367.602 1037.87 368.421 1038.38 369.121C1038.88 369.813 1039.62 370.353 1040.58 370.741C1041.55 371.129 1042.72 371.323 1044.09 371.323C1045.48 371.323 1046.67 371.134 1047.64 370.755C1048.62 370.367 1049.36 369.822 1049.87 369.121C1050.38 368.421 1050.64 367.602 1050.64 366.664C1050.64 365.973 1050.5 365.353 1050.21 364.803C1049.93 364.245 1049.52 363.785 1048.98 363.425C1048.43 363.056 1047.77 362.815 1047 362.701V356.991C1048.67 357.085 1050.14 357.54 1051.41 358.354C1052.67 359.159 1053.65 360.272 1054.36 361.692C1055.07 363.113 1055.43 364.794 1055.43 366.735ZM1025.91 337.594H1055V343.745H1025.91V337.594ZM1042.39 326.597H1055V332.648H1033.18V326.881H1037.03V326.625C1035.76 326.142 1034.76 325.332 1034.02 324.196C1033.27 323.06 1032.9 321.682 1032.9 320.062C1032.9 318.547 1033.23 317.226 1033.89 316.099C1034.55 314.973 1035.5 314.097 1036.73 313.472C1037.95 312.847 1039.41 312.534 1041.11 312.534H1055V318.585H1042.19C1040.85 318.576 1039.81 318.917 1039.06 319.608C1038.3 320.299 1037.93 321.251 1037.93 322.463C1037.93 323.277 1038.1 323.997 1038.45 324.622C1038.8 325.238 1039.31 325.721 1039.99 326.071C1040.65 326.412 1041.45 326.587 1042.39 326.597ZM1039.4 289.612L1039.74 295.151C1039.27 295.246 1038.84 295.45 1038.47 295.762C1038.08 296.075 1037.77 296.487 1037.54 296.998C1037.31 297.5 1037.19 298.101 1037.19 298.802C1037.19 299.739 1037.39 300.53 1037.78 301.174C1038.17 301.818 1038.69 302.14 1039.35 302.14C1039.87 302.14 1040.31 301.932 1040.67 301.515C1041.03 301.098 1041.32 300.383 1041.53 299.37L1042.33 295.421C1042.77 293.3 1043.47 291.719 1044.43 290.677C1045.4 289.635 1046.67 289.114 1048.24 289.114C1049.67 289.114 1050.92 289.536 1052 290.379C1053.08 291.212 1053.93 292.358 1054.53 293.816C1055.13 295.265 1055.43 296.936 1055.43 298.83C1055.43 301.719 1054.82 304.02 1053.62 305.734C1052.41 307.438 1050.76 308.437 1048.68 308.731L1048.37 302.779C1049.25 302.599 1049.92 302.164 1050.38 301.472C1050.84 300.781 1051.07 299.896 1051.07 298.816C1051.07 297.755 1050.86 296.903 1050.45 296.259C1050.04 295.606 1049.5 295.274 1048.85 295.265C1048.3 295.274 1047.85 295.506 1047.5 295.961C1047.14 296.415 1046.87 297.116 1046.68 298.063L1045.92 301.842C1045.5 303.972 1044.76 305.558 1043.71 306.6C1042.66 307.632 1041.32 308.148 1039.69 308.148C1038.29 308.148 1037.08 307.77 1036.07 307.012C1035.05 306.245 1034.27 305.17 1033.72 303.788C1033.17 302.396 1032.9 300.767 1032.9 298.901C1032.9 296.146 1033.48 293.977 1034.64 292.396C1035.81 290.805 1037.4 289.877 1039.4 289.612ZM1055 285.304H1033.18V279.253H1055V285.304ZM1030.37 282.264C1030.37 283.164 1030.07 283.936 1029.47 284.58C1028.87 285.214 1028.14 285.531 1027.3 285.531C1026.47 285.531 1025.75 285.214 1025.16 284.58C1024.55 283.936 1024.25 283.164 1024.25 282.264C1024.25 281.365 1024.55 280.598 1025.16 279.963C1025.75 279.319 1026.47 278.997 1027.3 278.997C1028.14 278.997 1028.87 279.319 1029.47 279.963C1030.07 280.598 1030.37 281.365 1030.37 282.264ZM1055.36 266.366C1055.36 268.023 1054.93 269.524 1054.08 270.869C1053.21 272.204 1051.95 273.264 1050.28 274.05C1048.61 274.827 1046.55 275.215 1044.12 275.215C1041.62 275.215 1039.54 274.813 1037.88 274.008C1036.22 273.203 1034.97 272.133 1034.15 270.798C1033.31 269.453 1032.9 267.98 1032.9 266.38C1032.9 265.158 1033.11 264.14 1033.52 263.326C1033.93 262.502 1034.44 261.839 1035.06 261.337C1035.66 260.826 1036.26 260.438 1036.85 260.173V259.988H1025.91V253.951H1055V259.917H1051.51V260.173C1052.11 260.457 1052.71 260.859 1053.31 261.38C1053.9 261.891 1054.38 262.559 1054.77 263.383C1055.16 264.197 1055.36 265.192 1055.36 266.366ZM1050.54 264.448C1050.54 263.473 1050.27 262.649 1049.74 261.977C1049.2 261.295 1048.45 260.774 1047.49 260.414C1046.52 260.045 1045.39 259.86 1044.09 259.86C1042.79 259.86 1041.67 260.04 1040.71 260.4C1039.75 260.76 1039.02 261.281 1038.49 261.962C1037.97 262.644 1037.71 263.473 1037.71 264.448C1037.71 265.442 1037.98 266.281 1038.52 266.962C1039.06 267.644 1039.81 268.16 1040.77 268.511C1041.72 268.861 1042.83 269.036 1044.09 269.036C1045.36 269.036 1046.48 268.861 1047.46 268.511C1048.42 268.151 1049.18 267.635 1049.73 266.962C1050.27 266.281 1050.54 265.442 1050.54 264.448ZM1055.43 239.033C1055.43 241.277 1054.97 243.209 1054.06 244.828C1053.14 246.438 1051.85 247.679 1050.17 248.55C1048.48 249.421 1046.49 249.857 1044.19 249.857C1041.95 249.857 1039.98 249.421 1038.28 248.55C1036.59 247.679 1035.27 246.452 1034.32 244.871C1033.37 243.28 1032.9 241.414 1032.9 239.274C1032.9 237.835 1033.13 236.495 1033.59 235.254C1034.05 234.004 1034.73 232.915 1035.65 231.987C1036.57 231.05 1037.73 230.321 1039.12 229.8C1040.5 229.279 1042.12 229.018 1043.98 229.018H1045.64V247.442H1041.89V234.714C1041.02 234.714 1040.25 234.904 1039.57 235.283C1038.9 235.661 1038.38 236.187 1038 236.859C1037.61 237.522 1037.41 238.294 1037.41 239.175C1037.41 240.093 1037.63 240.908 1038.05 241.618C1038.47 242.319 1039.03 242.868 1039.74 243.266C1040.45 243.663 1041.23 243.867 1042.09 243.876H1045.65C1046.73 243.876 1047.67 243.678 1048.45 243.28C1049.24 242.873 1049.84 242.3 1050.27 241.561C1050.7 240.822 1050.91 239.946 1050.91 238.933C1050.91 238.261 1050.81 237.645 1050.62 237.087C1050.44 236.528 1050.15 236.05 1049.77 235.652C1049.39 235.254 1048.93 234.951 1048.38 234.743L1048.75 229.146C1050.09 229.43 1051.27 230.013 1052.27 230.893C1053.27 231.765 1054.04 232.892 1054.6 234.274C1055.15 235.647 1055.43 237.233 1055.43 239.033Z" fill="#A6A094"/>
<circle id="Ellipse 11" cx="836" cy="549" r="55" stroke="#A6A094" stroke-width="4"/>
</g>
<g id="Audio jack">
<g id="Vector">
<path d="M1559 322H1817V456H1559V322Z" fill="#5E6066"/>
<path d="M1817 334H1874V444H1817V334Z" fill="#5E6066"/>
</g>
<rect id="Rectangle 1" x="1738" y="322" width="58" height="134" fill="#F3C37C"/>
</g>
<g id="Audio jack_2">
<g id="Vector_2">
<path d="M1559 550H1817V684H1559V550Z" fill="#5E6066"/>
<path d="M1817 562H1874V672H1817V562Z" fill="#5E6066"/>
</g>
<rect id="Rectangle 1_2" x="1738" y="550" width="58" height="134" fill="#F3C37C"/>
</g>
<g id="Pins">
<path id="Goldpin" d="M1269.75 270H1294.38L1305.32 254.679V168.774L1294.38 154H1269.75L1261 168.774V254.679L1269.75 270Z" fill="#0D1012"/>
<rect id="Rectangle 2" x="1270.85" y="178.075" width="22.9811" height="22.9811" fill="#F3C37C"/>
<rect id="Rectangle 3" x="1270.85" y="222.943" width="22.9811" height="22.9811" fill="#F3C37C"/>
</g>
<g id="Pins_2">
<path id="Goldpin_2" d="M1320.75 270H1345.38L1356.32 254.679V168.774L1345.38 154H1320.75L1312 168.774V254.679L1320.75 270Z" fill="#0D1012"/>
<rect id="Rectangle 2_2" x="1321.85" y="178.075" width="22.9811" height="22.9811" fill="#F3C37C"/>
<rect id="Rectangle 3_2" x="1321.85" y="222.943" width="22.9811" height="22.9811" fill="#F3C37C"/>
</g>
<g id="Pins_3">
<path id="Goldpin_3" d="M1371.75 270H1396.38L1407.32 254.679V168.774L1396.38 154H1371.75L1363 168.774V254.679L1371.75 270Z" fill="#0D1012"/>
<rect id="Rectangle 2_3" x="1372.85" y="178.075" width="22.9811" height="22.9811" fill="#F3C37C"/>
<rect id="Rectangle 3_3" x="1372.85" y="222.943" width="22.9811" height="22.9811" fill="#F3C37C"/>
</g>
<g id="Pins_4">
<path id="Goldpin_4" d="M1422.75 270H1447.38L1458.32 254.679V168.774L1447.38 154H1422.75L1414 168.774V254.679L1422.75 270Z" fill="#0D1012"/>
<rect id="Rectangle 2_4" x="1423.85" y="178.075" width="22.9811" height="22.9811" fill="#F3C37C"/>
<rect id="Rectangle 3_4" x="1423.85" y="222.943" width="22.9811" height="22.9811" fill="#F3C37C"/>
</g>
<g id="Pins_5">
<path id="Goldpin_5" d="M1473.75 270H1498.38L1509.32 254.679V168.774L1498.38 154H1473.75L1465 168.774V254.679L1473.75 270Z" fill="#0D1012"/>
<rect id="Rectangle 2_5" x="1474.85" y="178.075" width="22.9811" height="22.9811" fill="#F3C37C"/>
<rect id="Rectangle 3_5" x="1474.85" y="222.943" width="22.9811" height="22.9811" fill="#F3C37C"/>
</g>
<g id="Pins_6">
<path id="Goldpin_6" d="M1524.75 270H1549.38L1560.32 254.679V168.774L1549.38 154H1524.75L1516 168.774V254.679L1524.75 270Z" fill="#0D1012"/>
<rect id="Rectangle 2_6" x="1525.85" y="178.075" width="22.9811" height="22.9811" fill="#F3C37C"/>
<rect id="Rectangle 3_6" x="1525.85" y="222.943" width="22.9811" height="22.9811" fill="#F3C37C"/>
</g>
<g id="JTAG Pins">
<g id="Pins_7">
<path id="Goldpin_7" d="M436 200.566V175.943L420.679 165H334.774L320 175.943V200.566L334.774 209.321L420.679 209.321L436 200.566Z" fill="#0D1012"/>
<rect id="Rectangle 2_7" x="344.075" y="199.472" width="22.9811" height="22.9811" transform="rotate(-90 344.075 199.472)" fill="#F3C37C"/>
<rect id="Rectangle 3_7" x="388.943" y="199.472" width="22.9811" height="22.9811" transform="rotate(-90 388.943 199.472)" fill="#F3C37C"/>
</g>
<g id="Pins_8">
<path id="Goldpin_8" d="M528 200.566V175.943L512.679 165H426.774L412 175.943V200.566L426.774 209.321L512.679 209.321L528 200.566Z" fill="#0D1012"/>
<rect id="Rectangle 2_8" x="436.075" y="199.472" width="22.9811" height="22.9811" transform="rotate(-90 436.075 199.472)" fill="#F3C37C"/>
<rect id="Rectangle 3_8" x="480.943" y="199.472" width="22.9811" height="22.9811" transform="rotate(-90 480.943 199.472)" fill="#F3C37C"/>
</g>
</g>
<g id="Pins_9">
<path id="Goldpin_9" d="M1575.75 270H1600.38L1611.32 254.679V168.774L1600.38 154H1575.75L1567 168.774V254.679L1575.75 270Z" fill="#0D1012"/>
<rect id="Rectangle 2_9" x="1576.85" y="178.075" width="22.9811" height="22.9811" fill="#F3C37C"/>
<rect id="Rectangle 3_9" x="1576.85" y="222.943" width="22.9811" height="22.9811" fill="#F3C37C"/>
</g>
<g id="SD Card Reader">
<path id="Rectangle 4" d="M111.88 306H424V590H385.12V617H100V527L111.88 504V306Z" fill="#C4C4C4"/>
<path id="Vector 1" d="M252.5 617.5V575H218L204 589L159 586" stroke="#3F474E" stroke-width="8"/>
</g>
<g id="Micro_Usb">
<rect id="Rectangle 6" x="98" y="688" width="137" height="155" fill="#D5D5D8"/>
<rect id="Rectangle 7" x="126" y="708" width="40" height="17" fill="#2C3038"/>
<rect id="Rectangle 8" x="126" y="808" width="40" height="17" fill="#2C3038"/>
</g>
<g id="Micro_Usb_2">
<rect id="Rectangle 6_2" x="98" y="991" width="137" height="155" fill="#D5D5D8"/>
<rect id="Rectangle 7_2" x="126" y="1011" width="40" height="17" fill="#2C3038"/>
<rect id="Rectangle 8_2" x="126" y="1111" width="40" height="17" fill="#2C3038"/>
</g>
<g id="Microphone" filter="url(#filter2_d_5_8)">
<circle id="Ellipse 12" cx="787.5" cy="1205.5" r="85.5" fill="#16171B"/>
<circle id="Ellipse 13" cx="788" cy="1206" r="32" fill="#363334"/>
</g>
<g id="Microphone_2" filter="url(#filter3_d_5_8)">
<circle id="Ellipse 12_2" cx="1531.5" cy="1205.5" r="85.5" fill="#16171B"/>
<circle id="Ellipse 13_2" cx="1532" cy="1206" r="32" fill="#363334"/>
</g>
<g id="JS_XHT">
<rect id="Rectangle 9" x="1631" y="764" width="136" height="163" fill="#EBECF2"/>
<g id="Subtract_5" filter="url(#filter4_d_5_8)">
<path fill-rule="evenodd" clip-rule="evenodd" d="M1767 764H1631V927H1767V881H1743V910H1654V781H1743V811H1767V764Z" fill="#C0C0C0"/>
</g>
<rect id="Rectangle 13" x="1688" y="808" width="25" height="25" fill="#F3C37C"/>
<rect id="Rectangle 14" x="1688" y="859" width="25" height="25" fill="#F3C37C"/>
</g>
<g id="JS_XHT_2">
<rect id="Rectangle 9_2" x="1633" y="965" width="136" height="163" fill="#EBECF2"/>
<g id="Subtract_6" filter="url(#filter5_d_5_8)">
<path fill-rule="evenodd" clip-rule="evenodd" d="M1769 965H1633V1128H1769V1082H1745V1111H1656V982H1745V1012H1769V965Z" fill="#C0C0C0"/>
</g>
<rect id="Rectangle 13_2" x="1690" y="1009" width="25" height="25" fill="#F3C37C"/>
<rect id="Rectangle 14_2" x="1690" y="1060" width="25" height="25" fill="#F3C37C"/>
</g>
<g id="JS_XHT_3">
<rect id="Rectangle 9_3" x="282" y="1380" width="136" height="163" transform="rotate(-180 282 1380)" fill="#EBECF2"/>
<g id="Subtract_7" filter="url(#filter6_d_5_8)">
<path fill-rule="evenodd" clip-rule="evenodd" d="M146 1380H282L282 1217H146V1263H170V1234H259V1363H170V1333H146V1380Z" fill="#C0C0C0"/>
</g>
<rect id="Rectangle 13_3" x="225" y="1336" width="25" height="25" transform="rotate(-180 225 1336)" fill="#F3C37C"/>
<rect id="Rectangle 14_3" x="225" y="1285" width="25" height="25" transform="rotate(-180 225 1285)" fill="#F3C37C"/>
</g>
<g id="Button">
<rect id="Rectangle 17" x="303" y="1427" width="99" height="75" rx="10" fill="#A6A094"/>
<g id="Group 2">
<mask id="mask0_5_8" style="mask-type:alpha" maskUnits="userSpaceOnUse" x="303" y="1427" width="99" height="75">
<rect id="Rectangle 15" x="303" y="1427" width="99" height="75" rx="10" fill="#A6A094"/>
</mask>
<g mask="url(#mask0_5_8)">
<rect id="Rectangle 16" x="259" y="1440.32" width="86.0638" height="42" transform="rotate(-44.5 259 1440.32)" fill="#C4C4C4"/>
<rect id="Rectangle 17_2" x="384.957" y="1379" width="86.0638" height="42" transform="rotate(45.5 384.957 1379)" fill="#C4C4C4"/>
<rect id="Rectangle 18" x="340" y="1535.32" width="86.0638" height="42" transform="rotate(-44.5 340 1535.32)" fill="#C4C4C4"/>
<rect id="Rectangle 19" x="295.957" y="1465" width="86.0638" height="42" transform="rotate(45.5 295.957 1465)" fill="#C4C4C4"/>
</g>
</g>
<g id="Ellipse 14" filter="url(#filter7_d_5_8)">
<ellipse cx="352.5" cy="1464.5" rx="32.5" ry="24.5" fill="#21201E"/>
</g>
</g>
<g id="Button_2">
<rect id="Rectangle 17_3" x="475" y="1427" width="99" height="75" rx="10" fill="#A6A094"/>
<g id="Group 2_2">
<mask id="mask1_5_8" style="mask-type:alpha" maskUnits="userSpaceOnUse" x="475" y="1427" width="99" height="75">
<rect id="Rectangle 15_2" x="475" y="1427" width="99" height="75" rx="10" fill="#A6A094"/>
</mask>
<g mask="url(#mask1_5_8)">
<rect id="Rectangle 16_2" x="431" y="1440.32" width="86.0638" height="42" transform="rotate(-44.5 431 1440.32)" fill="#C4C4C4"/>
<rect id="Rectangle 17_4" x="556.957" y="1379" width="86.0638" height="42" transform="rotate(45.5 556.957 1379)" fill="#C4C4C4"/>
<rect id="Rectangle 18_2" x="512" y="1535.32" width="86.0638" height="42" transform="rotate(-44.5 512 1535.32)" fill="#C4C4C4"/>
<rect id="Rectangle 19_2" x="467.957" y="1465" width="86.0638" height="42" transform="rotate(45.5 467.957 1465)" fill="#C4C4C4"/>
</g>
</g>
<g id="Ellipse 14_2" filter="url(#filter8_d_5_8)">
<ellipse cx="524.5" cy="1464.5" rx="32.5" ry="24.5" fill="#21201E"/>
</g>
</g>
<g id="Button_3">
<rect id="Rectangle 17_5" x="647" y="1427" width="99" height="75" rx="10" fill="#A6A094"/>
<g id="Group 2_3">
<mask id="mask2_5_8" style="mask-type:alpha" maskUnits="userSpaceOnUse" x="647" y="1427" width="99" height="75">
<rect id="Rectangle 15_3" x="647" y="1427" width="99" height="75" rx="10" fill="#A6A094"/>
</mask>
<g mask="url(#mask2_5_8)">
<rect id="Rectangle 16_3" x="603" y="1440.32" width="86.0638" height="42" transform="rotate(-44.5 603 1440.32)" fill="#C4C4C4"/>
<rect id="Rectangle 17_6" x="728.957" y="1379" width="86.0638" height="42" transform="rotate(45.5 728.957 1379)" fill="#C4C4C4"/>
<rect id="Rectangle 18_3" x="684" y="1535.32" width="86.0638" height="42" transform="rotate(-44.5 684 1535.32)" fill="#C4C4C4"/>
<rect id="Rectangle 19_3" x="639.957" y="1465" width="86.0638" height="42" transform="rotate(45.5 639.957 1465)" fill="#C4C4C4"/>
</g>
</g>
<g id="Ellipse 14_3" filter="url(#filter9_d_5_8)">
<ellipse cx="696.5" cy="1464.5" rx="32.5" ry="24.5" fill="#21201E"/>
</g>
</g>
<g id="Button_4">
<rect id="Rectangle 17_7" x="819" y="1427" width="99" height="75" rx="10" fill="#A6A094"/>
<g id="Group 2_4">
<mask id="mask3_5_8" style="mask-type:alpha" maskUnits="userSpaceOnUse" x="819" y="1427" width="99" height="75">
<rect id="Rectangle 15_4" x="819" y="1427" width="99" height="75" rx="10" fill="#A6A094"/>
</mask>
<g mask="url(#mask3_5_8)">
<rect id="Rectangle 16_4" x="775" y="1440.32" width="86.0638" height="42" transform="rotate(-44.5 775 1440.32)" fill="#C4C4C4"/>
<rect id="Rectangle 17_8" x="900.957" y="1379" width="86.0638" height="42" transform="rotate(45.5 900.957 1379)" fill="#C4C4C4"/>
<rect id="Rectangle 18_4" x="856" y="1535.32" width="86.0638" height="42" transform="rotate(-44.5 856 1535.32)" fill="#C4C4C4"/>
<rect id="Rectangle 19_4" x="811.957" y="1465" width="86.0638" height="42" transform="rotate(45.5 811.957 1465)" fill="#C4C4C4"/>
</g>
</g>
<g id="Ellipse 14_4" filter="url(#filter10_d_5_8)">
<ellipse cx="868.5" cy="1464.5" rx="32.5" ry="24.5" fill="#21201E"/>
</g>
</g>
<g id="Button_5">
<rect id="Rectangle 17_9" x="991" y="1427" width="99" height="75" rx="10" fill="#A6A094"/>
<g id="Group 2_5">
<mask id="mask4_5_8" style="mask-type:alpha" maskUnits="userSpaceOnUse" x="991" y="1427" width="99" height="75">
<rect id="Rectangle 15_5" x="991" y="1427" width="99" height="75" rx="10" fill="#A6A094"/>
</mask>
<g mask="url(#mask4_5_8)">
<rect id="Rectangle 16_5" x="947" y="1440.32" width="86.0638" height="42" transform="rotate(-44.5 947 1440.32)" fill="#C4C4C4"/>
<rect id="Rectangle 17_10" x="1072.96" y="1379" width="86.0638" height="42" transform="rotate(45.5 1072.96 1379)" fill="#C4C4C4"/>
<rect id="Rectangle 18_5" x="1028" y="1535.32" width="86.0638" height="42" transform="rotate(-44.5 1028 1535.32)" fill="#C4C4C4"/>
<rect id="Rectangle 19_5" x="983.957" y="1465" width="86.0638" height="42" transform="rotate(45.5 983.957 1465)" fill="#C4C4C4"/>
</g>
</g>
<g id="Ellipse 14_5" filter="url(#filter11_d_5_8)">
<ellipse cx="1040.5" cy="1464.5" rx="32.5" ry="24.5" fill="#21201E"/>
</g>
</g>
<g id="Button_6">
<rect id="Rectangle 17_11" x="1163" y="1427" width="99" height="75" rx="10" fill="#A6A094"/>
<g id="Group 2_6">
<mask id="mask5_5_8" style="mask-type:alpha" maskUnits="userSpaceOnUse" x="1163" y="1427" width="99" height="75">
<rect id="Rectangle 15_6" x="1163" y="1427" width="99" height="75" rx="10" fill="#A6A094"/>
</mask>
<g mask="url(#mask5_5_8)">
<rect id="Rectangle 16_6" x="1119" y="1440.32" width="86.0638" height="42" transform="rotate(-44.5 1119 1440.32)" fill="#C4C4C4"/>
<rect id="Rectangle 17_12" x="1244.96" y="1379" width="86.0638" height="42" transform="rotate(45.5 1244.96 1379)" fill="#C4C4C4"/>
<rect id="Rectangle 18_6" x="1200" y="1535.32" width="86.0638" height="42" transform="rotate(-44.5 1200 1535.32)" fill="#C4C4C4"/>
<rect id="Rectangle 19_6" x="1155.96" y="1465" width="86.0638" height="42" transform="rotate(45.5 1155.96 1465)" fill="#C4C4C4"/>
</g>
</g>
<g id="Ellipse 14_6" filter="url(#filter12_d_5_8)">
<ellipse cx="1212.5" cy="1464.5" rx="32.5" ry="24.5" fill="#21201E"/>
</g>
</g>
<g id="Button_7">
<rect id="Rectangle 17_13" x="1335" y="1427" width="99" height="75" rx="10" fill="#A6A094"/>
<g id="Group 2_7">
<mask id="mask6_5_8" style="mask-type:alpha" maskUnits="userSpaceOnUse" x="1335" y="1427" width="99" height="75">
<rect id="Rectangle 15_7" x="1335" y="1427" width="99" height="75" rx="10" fill="#A6A094"/>
</mask>
<g mask="url(#mask6_5_8)">
<rect id="Rectangle 16_7" x="1291" y="1440.32" width="86.0638" height="42" transform="rotate(-44.5 1291 1440.32)" fill="#C4C4C4"/>
<rect id="Rectangle 17_14" x="1416.96" y="1379" width="86.0638" height="42" transform="rotate(45.5 1416.96 1379)" fill="#C4C4C4"/>
<rect id="Rectangle 18_7" x="1372" y="1535.32" width="86.0638" height="42" transform="rotate(-44.5 1372 1535.32)" fill="#C4C4C4"/>
<rect id="Rectangle 19_7" x="1327.96" y="1465" width="86.0638" height="42" transform="rotate(45.5 1327.96 1465)" fill="#C4C4C4"/>
</g>
</g>
<g id="Ellipse 14_7" filter="url(#filter13_d_5_8)">
<ellipse cx="1384.5" cy="1464.5" rx="32.5" ry="24.5" fill="#21201E"/>
</g>
</g>
<g id="Button_8">
<rect id="Rectangle 17_15" x="1507" y="1427" width="99" height="75" rx="10" fill="#A6A094"/>
<g id="Group 2_8">
<mask id="mask7_5_8" style="mask-type:alpha" maskUnits="userSpaceOnUse" x="1507" y="1427" width="99" height="75">
<rect id="Rectangle 15_8" x="1507" y="1427" width="99" height="75" rx="10" fill="#A6A094"/>
</mask>
<g mask="url(#mask7_5_8)">
<rect id="Rectangle 16_8" x="1463" y="1440.32" width="86.0638" height="42" transform="rotate(-44.5 1463 1440.32)" fill="#C4C4C4"/>
<rect id="Rectangle 17_16" x="1588.96" y="1379" width="86.0638" height="42" transform="rotate(45.5 1588.96 1379)" fill="#C4C4C4"/>
<rect id="Rectangle 18_8" x="1544" y="1535.32" width="86.0638" height="42" transform="rotate(-44.5 1544 1535.32)" fill="#C4C4C4"/>
<rect id="Rectangle 19_8" x="1499.96" y="1465" width="86.0638" height="42" transform="rotate(45.5 1499.96 1465)" fill="#C4C4C4"/>
</g>
</g>
<g id="Ellipse 14_8" filter="url(#filter14_d_5_8)">
<ellipse cx="1556.5" cy="1464.5" rx="32.5" ry="24.5" fill="#21201E"/>
</g>
</g>
<g id="serial_chip">
<rect x="389" y="698" width="103" height="110" fill="#16171B"/>
<rect x="389" y="698" width="103" height="110" fill="#16171B"/>
<rect x="389" y="698" width="103" height="110" fill="#16171B"/>
</g>
<g id="boost_chip">
<rect x="389" y="1056" width="94" height="72" fill="#16171B"/>
<rect x="389" y="1056" width="94" height="72" fill="#16171B"/>
<rect x="389" y="1056" width="94" height="72" fill="#16171B"/>
</g>
<g id="amplifier_chip">
<rect x="1422" y="781" width="77" height="97" fill="#16171B"/>
<rect x="1422" y="781" width="77" height="97" fill="#16171B"/>
<rect x="1422" y="781" width="77" height="97" fill="#16171B"/>
</g>
<g id="amplifier_chip_2">
<rect x="1422" y="950" width="77" height="97" fill="#16171B"/>
<rect x="1422" y="950" width="77" height="97" fill="#16171B"/>
<rect x="1422" y="950" width="77" height="97" fill="#16171B"/>
</g>
<g id="dip_switch">
<g id="dip_switch_2">
<rect x="662" y="808" width="288" height="127" fill="#16171B"/>
<rect x="662" y="808" width="288" height="127" fill="#16171B"/>
<rect x="662" y="808" width="288" height="127" fill="#16171B"/>
</g>
<g id="switches">
<g id="Rectangle 20">
<rect x="685" y="838" width="30" height="67" fill="#D5C5AD"/>
<rect x="685" y="838" width="30" height="67" fill="#D5C5AD"/>
</g>
<g id="Rectangle 20_2">
<rect x="738" y="838" width="30" height="67" fill="#D5C5AD"/>
<rect x="738" y="838" width="30" height="67" fill="#D5C5AD"/>
</g>
<g id="Rectangle 22">
<rect x="844" y="838" width="30" height="67" fill="#D5C5AD"/>
<rect x="844" y="838" width="30" height="67" fill="#D5C5AD"/>
</g>
<g id="Rectangle 20_3">
<rect x="791" y="838" width="30" height="67" fill="#D5C5AD"/>
<rect x="791" y="838" width="30" height="67" fill="#D5C5AD"/>
</g>
<g id="Rectangle 21">
<rect x="897" y="838" width="30" height="67" fill="#D5C5AD"/>
<rect x="897" y="838" width="30" height="67" fill="#D5C5AD"/>
</g>
<g id="Rectangle 23" filter="url(#filter15_d_5_8)">
<rect x="897" y="876" width="30" height="29" fill="#EBECF2"/>
</g>
<g id="Rectangle 24" filter="url(#filter16_d_5_8)">
<rect x="844" y="876" width="30" height="29" fill="#EBECF2"/>
</g>
<g id="Rectangle 25" filter="url(#filter17_d_5_8)">
<rect x="791" y="876" width="30" height="29" fill="#EBECF2"/>
</g>
<g id="Rectangle 26" filter="url(#filter18_d_5_8)">
<rect x="738" y="876" width="30" height="29" fill="#EBECF2"/>
</g>
<g id="Rectangle 27" filter="url(#filter19_d_5_8)">
<rect x="685" y="876" width="30" height="29" fill="#EBECF2"/>
</g>
</g>
</g>
</g>
</g>
<defs>
<filter id="filter0_d_5_8" x="114" y="122" width="1692" height="1414" filterUnits="userSpaceOnUse" color-interpolation-filters="sRGB">
<feFlood flood-opacity="0" result="BackgroundImageFix"/>
<feColorMatrix in="SourceAlpha" type="matrix" values="0 0 0 0 0 0 0 0 0 0 0 0 0 0 0 0 0 0 127 0" result="hardAlpha"/>
<feOffset/>
<feGaussianBlur stdDeviation="5"/>
<feComposite in2="hardAlpha" operator="out"/>
<feColorMatrix type="matrix" values="0 0 0 0 0 0 0 0 0 0 0 0 0 0 0 0 0 0 0.4 0"/>
<feBlend mode="normal" in2="BackgroundImageFix" result="effect1_dropShadow_5_8"/>
<feBlend mode="normal" in="SourceGraphic" in2="effect1_dropShadow_5_8" result="shape"/>
</filter>
<filter id="filter1_d_5_8" x="728" y="6" width="396" height="658" filterUnits="userSpaceOnUse" color-interpolation-filters="sRGB">
<feFlood flood-opacity="0" result="BackgroundImageFix"/>
<feColorMatrix in="SourceAlpha" type="matrix" values="0 0 0 0 0 0 0 0 0 0 0 0 0 0 0 0 0 0 127 0" result="hardAlpha"/>
<feOffset dy="4"/>
<feGaussianBlur stdDeviation="2"/>
<feComposite in2="hardAlpha" operator="out"/>
<feColorMatrix type="matrix" values="0 0 0 0 0 0 0 0 0 0 0 0 0 0 0 0 0 0 0.25 0"/>
<feBlend mode="normal" in2="BackgroundImageFix" result="effect1_dropShadow_5_8"/>
<feBlend mode="normal" in="SourceGraphic" in2="effect1_dropShadow_5_8" result="shape"/>
</filter>
<filter id="filter2_d_5_8" x="696" y="1114" width="191" height="191" filterUnits="userSpaceOnUse" color-interpolation-filters="sRGB">
<feFlood flood-opacity="0" result="BackgroundImageFix"/>
<feColorMatrix in="SourceAlpha" type="matrix" values="0 0 0 0 0 0 0 0 0 0 0 0 0 0 0 0 0 0 127 0" result="hardAlpha"/>
<feOffset dx="4" dy="4"/>
<feGaussianBlur stdDeviation="5"/>
<feComposite in2="hardAlpha" operator="out"/>
<feColorMatrix type="matrix" values="0 0 0 0 0 0 0 0 0 0 0 0 0 0 0 0 0 0 0.25 0"/>
<feBlend mode="normal" in2="BackgroundImageFix" result="effect1_dropShadow_5_8"/>
<feBlend mode="normal" in="SourceGraphic" in2="effect1_dropShadow_5_8" result="shape"/>
</filter>
<filter id="filter3_d_5_8" x="1440" y="1114" width="191" height="191" filterUnits="userSpaceOnUse" color-interpolation-filters="sRGB">
<feFlood flood-opacity="0" result="BackgroundImageFix"/>
<feColorMatrix in="SourceAlpha" type="matrix" values="0 0 0 0 0 0 0 0 0 0 0 0 0 0 0 0 0 0 127 0" result="hardAlpha"/>
<feOffset dx="4" dy="4"/>
<feGaussianBlur stdDeviation="5"/>
<feComposite in2="hardAlpha" operator="out"/>
<feColorMatrix type="matrix" values="0 0 0 0 0 0 0 0 0 0 0 0 0 0 0 0 0 0 0.25 0"/>
<feBlend mode="normal" in2="BackgroundImageFix" result="effect1_dropShadow_5_8"/>
<feBlend mode="normal" in="SourceGraphic" in2="effect1_dropShadow_5_8" result="shape"/>
</filter>
<filter id="filter4_d_5_8" x="1625" y="754" width="156" height="183" filterUnits="userSpaceOnUse" color-interpolation-filters="sRGB">
<feFlood flood-opacity="0" result="BackgroundImageFix"/>
<feColorMatrix in="SourceAlpha" type="matrix" values="0 0 0 0 0 0 0 0 0 0 0 0 0 0 0 0 0 0 127 0" result="hardAlpha"/>
<feOffset dx="4"/>
<feGaussianBlur stdDeviation="5"/>
<feComposite in2="hardAlpha" operator="out"/>
<feColorMatrix type="matrix" values="0 0 0 0 0 0 0 0 0 0 0 0 0 0 0 0 0 0 0.25 0"/>
<feBlend mode="normal" in2="BackgroundImageFix" result="effect1_dropShadow_5_8"/>
<feBlend mode="normal" in="SourceGraphic" in2="effect1_dropShadow_5_8" result="shape"/>
</filter>
<filter id="filter5_d_5_8" x="1627" y="955" width="156" height="183" filterUnits="userSpaceOnUse" color-interpolation-filters="sRGB">
<feFlood flood-opacity="0" result="BackgroundImageFix"/>
<feColorMatrix in="SourceAlpha" type="matrix" values="0 0 0 0 0 0 0 0 0 0 0 0 0 0 0 0 0 0 127 0" result="hardAlpha"/>
<feOffset dx="4"/>
<feGaussianBlur stdDeviation="5"/>
<feComposite in2="hardAlpha" operator="out"/>
<feColorMatrix type="matrix" values="0 0 0 0 0 0 0 0 0 0 0 0 0 0 0 0 0 0 0.25 0"/>
<feBlend mode="normal" in2="BackgroundImageFix" result="effect1_dropShadow_5_8"/>
<feBlend mode="normal" in="SourceGraphic" in2="effect1_dropShadow_5_8" result="shape"/>
</filter>
<filter id="filter6_d_5_8" x="140" y="1207" width="156" height="183" filterUnits="userSpaceOnUse" color-interpolation-filters="sRGB">
<feFlood flood-opacity="0" result="BackgroundImageFix"/>
<feColorMatrix in="SourceAlpha" type="matrix" values="0 0 0 0 0 0 0 0 0 0 0 0 0 0 0 0 0 0 127 0" result="hardAlpha"/>
<feOffset dx="4"/>
<feGaussianBlur stdDeviation="5"/>
<feComposite in2="hardAlpha" operator="out"/>
<feColorMatrix type="matrix" values="0 0 0 0 0 0 0 0 0 0 0 0 0 0 0 0 0 0 0.25 0"/>
<feBlend mode="normal" in2="BackgroundImageFix" result="effect1_dropShadow_5_8"/>
<feBlend mode="normal" in="SourceGraphic" in2="effect1_dropShadow_5_8" result="shape"/>
</filter>
<filter id="filter7_d_5_8" x="316" y="1440" width="73" height="57" filterUnits="userSpaceOnUse" color-interpolation-filters="sRGB">
<feFlood flood-opacity="0" result="BackgroundImageFix"/>
<feColorMatrix in="SourceAlpha" type="matrix" values="0 0 0 0 0 0 0 0 0 0 0 0 0 0 0 0 0 0 127 0" result="hardAlpha"/>
<feOffset dy="4"/>
<feGaussianBlur stdDeviation="2"/>
<feComposite in2="hardAlpha" operator="out"/>
<feColorMatrix type="matrix" values="0 0 0 0 0 0 0 0 0 0 0 0 0 0 0 0 0 0 0.25 0"/>
<feBlend mode="normal" in2="BackgroundImageFix" result="effect1_dropShadow_5_8"/>
<feBlend mode="normal" in="SourceGraphic" in2="effect1_dropShadow_5_8" result="shape"/>
</filter>
<filter id="filter8_d_5_8" x="488" y="1440" width="73" height="57" filterUnits="userSpaceOnUse" color-interpolation-filters="sRGB">
<feFlood flood-opacity="0" result="BackgroundImageFix"/>
<feColorMatrix in="SourceAlpha" type="matrix" values="0 0 0 0 0 0 0 0 0 0 0 0 0 0 0 0 0 0 127 0" result="hardAlpha"/>
<feOffset dy="4"/>
<feGaussianBlur stdDeviation="2"/>
<feComposite in2="hardAlpha" operator="out"/>
<feColorMatrix type="matrix" values="0 0 0 0 0 0 0 0 0 0 0 0 0 0 0 0 0 0 0.25 0"/>
<feBlend mode="normal" in2="BackgroundImageFix" result="effect1_dropShadow_5_8"/>
<feBlend mode="normal" in="SourceGraphic" in2="effect1_dropShadow_5_8" result="shape"/>
</filter>
<filter id="filter9_d_5_8" x="660" y="1440" width="73" height="57" filterUnits="userSpaceOnUse" color-interpolation-filters="sRGB">
<feFlood flood-opacity="0" result="BackgroundImageFix"/>
<feColorMatrix in="SourceAlpha" type="matrix" values="0 0 0 0 0 0 0 0 0 0 0 0 0 0 0 0 0 0 127 0" result="hardAlpha"/>
<feOffset dy="4"/>
<feGaussianBlur stdDeviation="2"/>
<feComposite in2="hardAlpha" operator="out"/>
<feColorMatrix type="matrix" values="0 0 0 0 0 0 0 0 0 0 0 0 0 0 0 0 0 0 0.25 0"/>
<feBlend mode="normal" in2="BackgroundImageFix" result="effect1_dropShadow_5_8"/>
<feBlend mode="normal" in="SourceGraphic" in2="effect1_dropShadow_5_8" result="shape"/>
</filter>
<filter id="filter10_d_5_8" x="832" y="1440" width="73" height="57" filterUnits="userSpaceOnUse" color-interpolation-filters="sRGB">
<feFlood flood-opacity="0" result="BackgroundImageFix"/>
<feColorMatrix in="SourceAlpha" type="matrix" values="0 0 0 0 0 0 0 0 0 0 0 0 0 0 0 0 0 0 127 0" result="hardAlpha"/>
<feOffset dy="4"/>
<feGaussianBlur stdDeviation="2"/>
<feComposite in2="hardAlpha" operator="out"/>
<feColorMatrix type="matrix" values="0 0 0 0 0 0 0 0 0 0 0 0 0 0 0 0 0 0 0.25 0"/>
<feBlend mode="normal" in2="BackgroundImageFix" result="effect1_dropShadow_5_8"/>
<feBlend mode="normal" in="SourceGraphic" in2="effect1_dropShadow_5_8" result="shape"/>
</filter>
<filter id="filter11_d_5_8" x="1004" y="1440" width="73" height="57" filterUnits="userSpaceOnUse" color-interpolation-filters="sRGB">
<feFlood flood-opacity="0" result="BackgroundImageFix"/>
<feColorMatrix in="SourceAlpha" type="matrix" values="0 0 0 0 0 0 0 0 0 0 0 0 0 0 0 0 0 0 127 0" result="hardAlpha"/>
<feOffset dy="4"/>
<feGaussianBlur stdDeviation="2"/>
<feComposite in2="hardAlpha" operator="out"/>
<feColorMatrix type="matrix" values="0 0 0 0 0 0 0 0 0 0 0 0 0 0 0 0 0 0 0.25 0"/>
<feBlend mode="normal" in2="BackgroundImageFix" result="effect1_dropShadow_5_8"/>
<feBlend mode="normal" in="SourceGraphic" in2="effect1_dropShadow_5_8" result="shape"/>
</filter>
<filter id="filter12_d_5_8" x="1176" y="1440" width="73" height="57" filterUnits="userSpaceOnUse" color-interpolation-filters="sRGB">
<feFlood flood-opacity="0" result="BackgroundImageFix"/>
<feColorMatrix in="SourceAlpha" type="matrix" values="0 0 0 0 0 0 0 0 0 0 0 0 0 0 0 0 0 0 127 0" result="hardAlpha"/>
<feOffset dy="4"/>
<feGaussianBlur stdDeviation="2"/>
<feComposite in2="hardAlpha" operator="out"/>
<feColorMatrix type="matrix" values="0 0 0 0 0 0 0 0 0 0 0 0 0 0 0 0 0 0 0.25 0"/>
<feBlend mode="normal" in2="BackgroundImageFix" result="effect1_dropShadow_5_8"/>
<feBlend mode="normal" in="SourceGraphic" in2="effect1_dropShadow_5_8" result="shape"/>
</filter>
<filter id="filter13_d_5_8" x="1348" y="1440" width="73" height="57" filterUnits="userSpaceOnUse" color-interpolation-filters="sRGB">
<feFlood flood-opacity="0" result="BackgroundImageFix"/>
<feColorMatrix in="SourceAlpha" type="matrix" values="0 0 0 0 0 0 0 0 0 0 0 0 0 0 0 0 0 0 127 0" result="hardAlpha"/>
<feOffset dy="4"/>
<feGaussianBlur stdDeviation="2"/>
<feComposite in2="hardAlpha" operator="out"/>
<feColorMatrix type="matrix" values="0 0 0 0 0 0 0 0 0 0 0 0 0 0 0 0 0 0 0.25 0"/>
<feBlend mode="normal" in2="BackgroundImageFix" result="effect1_dropShadow_5_8"/>
<feBlend mode="normal" in="SourceGraphic" in2="effect1_dropShadow_5_8" result="shape"/>
</filter>
<filter id="filter14_d_5_8" x="1520" y="1440" width="73" height="57" filterUnits="userSpaceOnUse" color-interpolation-filters="sRGB">
<feFlood flood-opacity="0" result="BackgroundImageFix"/>
<feColorMatrix in="SourceAlpha" type="matrix" values="0 0 0 0 0 0 0 0 0 0 0 0 0 0 0 0 0 0 127 0" result="hardAlpha"/>
<feOffset dy="4"/>
<feGaussianBlur stdDeviation="2"/>
<feComposite in2="hardAlpha" operator="out"/>
<feColorMatrix type="matrix" values="0 0 0 0 0 0 0 0 0 0 0 0 0 0 0 0 0 0 0.25 0"/>
<feBlend mode="normal" in2="BackgroundImageFix" result="effect1_dropShadow_5_8"/>
<feBlend mode="normal" in="SourceGraphic" in2="effect1_dropShadow_5_8" result="shape"/>
</filter>
<filter id="filter15_d_5_8" x="888" y="863" width="48" height="47" filterUnits="userSpaceOnUse" color-interpolation-filters="sRGB">
<feFlood flood-opacity="0" result="BackgroundImageFix"/>
<feColorMatrix in="SourceAlpha" type="matrix" values="0 0 0 0 0 0 0 0 0 0 0 0 0 0 0 0 0 0 127 0" result="hardAlpha"/>
<feMorphology radius="5" operator="dilate" in="SourceAlpha" result="effect1_dropShadow_5_8"/>
<feOffset dy="-4"/>
<feGaussianBlur stdDeviation="2"/>
<feComposite in2="hardAlpha" operator="out"/>
<feColorMatrix type="matrix" values="0 0 0 0 0 0 0 0 0 0 0 0 0 0 0 0 0 0 0.25 0"/>
<feBlend mode="normal" in2="BackgroundImageFix" result="effect1_dropShadow_5_8"/>
<feBlend mode="normal" in="SourceGraphic" in2="effect1_dropShadow_5_8" result="shape"/>
</filter>
<filter id="filter16_d_5_8" x="835" y="863" width="48" height="47" filterUnits="userSpaceOnUse" color-interpolation-filters="sRGB">
<feFlood flood-opacity="0" result="BackgroundImageFix"/>
<feColorMatrix in="SourceAlpha" type="matrix" values="0 0 0 0 0 0 0 0 0 0 0 0 0 0 0 0 0 0 127 0" result="hardAlpha"/>
<feMorphology radius="5" operator="dilate" in="SourceAlpha" result="effect1_dropShadow_5_8"/>
<feOffset dy="-4"/>
<feGaussianBlur stdDeviation="2"/>
<feComposite in2="hardAlpha" operator="out"/>
<feColorMatrix type="matrix" values="0 0 0 0 0 0 0 0 0 0 0 0 0 0 0 0 0 0 0.25 0"/>
<feBlend mode="normal" in2="BackgroundImageFix" result="effect1_dropShadow_5_8"/>
<feBlend mode="normal" in="SourceGraphic" in2="effect1_dropShadow_5_8" result="shape"/>
</filter>
<filter id="filter17_d_5_8" x="782" y="863" width="48" height="47" filterUnits="userSpaceOnUse" color-interpolation-filters="sRGB">
<feFlood flood-opacity="0" result="BackgroundImageFix"/>
<feColorMatrix in="SourceAlpha" type="matrix" values="0 0 0 0 0 0 0 0 0 0 0 0 0 0 0 0 0 0 127 0" result="hardAlpha"/>
<feMorphology radius="5" operator="dilate" in="SourceAlpha" result="effect1_dropShadow_5_8"/>
<feOffset dy="-4"/>
<feGaussianBlur stdDeviation="2"/>
<feComposite in2="hardAlpha" operator="out"/>
<feColorMatrix type="matrix" values="0 0 0 0 0 0 0 0 0 0 0 0 0 0 0 0 0 0 0.25 0"/>
<feBlend mode="normal" in2="BackgroundImageFix" result="effect1_dropShadow_5_8"/>
<feBlend mode="normal" in="SourceGraphic" in2="effect1_dropShadow_5_8" result="shape"/>
</filter>
<filter id="filter18_d_5_8" x="729" y="863" width="48" height="47" filterUnits="userSpaceOnUse" color-interpolation-filters="sRGB">
<feFlood flood-opacity="0" result="BackgroundImageFix"/>
<feColorMatrix in="SourceAlpha" type="matrix" values="0 0 0 0 0 0 0 0 0 0 0 0 0 0 0 0 0 0 127 0" result="hardAlpha"/>
<feMorphology radius="5" operator="dilate" in="SourceAlpha" result="effect1_dropShadow_5_8"/>
<feOffset dy="-4"/>
<feGaussianBlur stdDeviation="2"/>
<feComposite in2="hardAlpha" operator="out"/>
<feColorMatrix type="matrix" values="0 0 0 0 0 0 0 0 0 0 0 0 0 0 0 0 0 0 0.25 0"/>
<feBlend mode="normal" in2="BackgroundImageFix" result="effect1_dropShadow_5_8"/>
<feBlend mode="normal" in="SourceGraphic" in2="effect1_dropShadow_5_8" result="shape"/>
</filter>
<filter id="filter19_d_5_8" x="676" y="863" width="48" height="47" filterUnits="userSpaceOnUse" color-interpolation-filters="sRGB">
<feFlood flood-opacity="0" result="BackgroundImageFix"/>
<feColorMatrix in="SourceAlpha" type="matrix" values="0 0 0 0 0 0 0 0 0 0 0 0 0 0 0 0 0 0 127 0" result="hardAlpha"/>
<feMorphology radius="5" operator="dilate" in="SourceAlpha" result="effect1_dropShadow_5_8"/>
<feOffset dy="-4"/>
<feGaussianBlur stdDeviation="2"/>
<feComposite in2="hardAlpha" operator="out"/>
<feColorMatrix type="matrix" values="0 0 0 0 0 0 0 0 0 0 0 0 0 0 0 0 0 0 0.25 0"/>
<feBlend mode="normal" in2="BackgroundImageFix" result="effect1_dropShadow_5_8"/>
<feBlend mode="normal" in="SourceGraphic" in2="effect1_dropShadow_5_8" result="shape"/>
</filter>
</defs>
</svg>
