<svg width="684" height="924" viewBox="0 0 684 924" fill="none" xmlns="http://www.w3.org/2000/svg">
<g id="SmallEuphonium">
<rect width="684" height="924" fill="white"/>
<g id="Small euphonium">
<rect id="Rectangle 29" x="162" y="838" width="180" height="49" fill="#C4C4C4"/>
<g id="Subtract" filter="url(#filter0_d_6_336)">
<path fill-rule="evenodd" clip-rule="evenodd" d="M643 172H41V866H643V172ZM93 196.5C93 207.27 84.2696 216 73.5 216C62.7304 216 54 207.27 54 196.5C54 185.73 62.7304 177 73.5 177C84.2696 177 93 185.73 93 196.5ZM628 196.5C628 207.27 619.27 216 608.5 216C597.73 216 589 207.27 589 196.5C589 185.73 597.73 177 608.5 177C619.27 177 628 185.73 628 196.5ZM73.5 857C84.2696 857 93 848.27 93 837.5C93 826.73 84.2696 818 73.5 818C62.7304 818 54 826.73 54 837.5C54 848.27 62.7304 857 73.5 857ZM628 837.5C628 848.27 619.27 857 608.5 857C597.73 857 589 848.27 589 837.5C589 826.73 597.73 818 608.5 818C619.27 818 628 826.73 628 837.5Z" fill="#892273"/>
</g>
<path id="Rectangle 30" d="M148 743C148 735.268 154.268 729 162 729V729C169.732 729 176 735.268 176 743V762C176 769.732 169.732 776 162 776V776C154.268 776 148 769.732 148 762V743Z" fill="#EBECF2"/>
<rect id="Rectangle 31" x="325" y="729" width="28" height="47" rx="14" fill="#EBECF2"/>
<rect id="Rectangle 32" x="148" y="808" width="28" height="47" rx="14" fill="#EBECF2"/>
<rect id="Rectangle 33" x="325" y="808" width="28" height="47" rx="14" fill="#EBECF2"/>
<g id="Serial Pins">
<g id="Pins">
<path id="Goldpin" d="M94.5661 329H69.9434L59 344.321L59 430.226L69.9434 445H94.5661L103.321 430.226L103.321 344.321L94.5661 329Z" fill="#0D1012"/>
<rect id="Rectangle 2" x="93.4717" y="420.925" width="22.9811" height="22.9811" transform="rotate(-180 93.4717 420.925)" fill="#F3C37C"/>
<rect id="Rectangle 3" x="93.4717" y="376.057" width="22.9811" height="22.9811" transform="rotate(-180 93.4717 376.057)" fill="#F3C37C"/>
</g>
<g id="Pins_2">
<path id="Goldpin_2" d="M94.5661 237H69.9434L59 252.321L59 338.226L69.9434 353H94.5661L103.321 338.226L103.321 252.321L94.5661 237Z" fill="#0D1012"/>
<rect id="Rectangle 2_2" x="93.4717" y="328.925" width="22.9811" height="22.9811" transform="rotate(-180 93.4717 328.925)" fill="#F3C37C"/>
<rect id="Rectangle 3_2" x="93.4717" y="284.057" width="22.9811" height="22.9811" transform="rotate(-180 93.4717 284.057)" fill="#F3C37C"/>
</g>
</g>
<path id="Goldpin background" d="M622.309 225H597.864L587 240L587 564L597.864 584H622.309L631 564L631 240L622.309 225Z" fill="#0D1012"/>
<g id="IO Pins">
<rect id="Rectangle 2_3" x="621.472" y="560" width="22.9811" height="22.9811" transform="rotate(-180 621.472 560)" fill="#F3C37C"/>
<rect id="Rectangle 2_4" x="621.472" y="416" width="22.9811" height="22.9811" transform="rotate(-180 621.472 416)" fill="#F3C37C"/>
<rect id="Rectangle 3_3" x="621.472" y="368" width="22.9811" height="22.9811" transform="rotate(-180 621.472 368)" fill="#F3C37C"/>
<rect id="Rectangle 2_5" x="621.472" y="320" width="22.9811" height="22.9811" transform="rotate(-180 621.472 320)" fill="#F3C37C"/>
<rect id="Rectangle 3_4" x="621.472" y="272.057" width="22.9811" height="22.9811" transform="rotate(-180 621.472 272.057)" fill="#F3C37C"/>
<rect id="Rectangle 2_6" x="621.472" y="512" width="22.9811" height="22.9811" transform="rotate(-180 621.472 512)" fill="#F3C37C"/>
<rect id="Rectangle 3_5" x="621.472" y="464" width="22.9811" height="22.9811" transform="rotate(-180 621.472 464)" fill="#F3C37C"/>
</g>
<g id="__ESP">
<rect id="ESP32 Border" x="138" y="37" width="398" height="655" fill="#D5D5D8"/>
<g id="ESP32" filter="url(#filter1_d_6_336)">
<rect x="143" y="37" width="388" height="650" fill="#2C3038"/>
</g>
<path id="PCB_Antenna" d="M189.5 137V47H235V103H286V47H334V103H385.5V47H430M430 47V133.5M430 47H478.5V133.5" stroke="#FFEFB5" stroke-width="10"/>
<g id="Antenna Conn">
<rect id="Rectangle 5" x="452" y="155" width="56" height="58" fill="#DFCFC8"/>
<path id="ring" fill-rule="evenodd" clip-rule="evenodd" d="M480 205C491.598 205 501 195.598 501 184C501 172.402 491.598 163 480 163C468.402 163 459 172.402 459 184C459 195.598 468.402 205 480 205ZM480 201C489.389 201 497 193.389 497 184C497 174.611 489.389 167 480 167C470.611 167 463 174.611 463 184C463 193.389 470.611 201 480 201Z" fill="#FFEFB5"/>
<circle id="Ellipse 9" cx="479.5" cy="184.5" r="6.5" fill="#FFEFB5"/>
</g>
<g id="pins right">
<rect id="__esp_gnd_3" x="519" y="653" width="30" height="20" fill="#FFEBA2"/>
<rect id="__esp_[AC101]LINEINR" x="519" y="627" width="30" height="20" fill="#FFEBA2"/>
<rect id="__esp_[AC101]LINEINL" x="519" y="601" width="30" height="20" fill="#FFEBA2"/>
<rect id="__esp_[AC101]SPORP" x="519" y="575" width="30" height="20" fill="#FFEBA2"/>
<rect id="__esp_[AC101]SPORN" x="519" y="550" width="30" height="20" fill="#FFEBA2"/>
<rect id="__esp_[AC101]SPOLP" x="519" y="523" width="30" height="20" fill="#FFEBA2"/>
<rect id="__esp_[AC101]SPOLN" x="519" y="497" width="30" height="20" fill="#FFEBA2"/>
<rect id="__esp_[AC101]HPOUTL" x="519" y="471" width="30" height="20" fill="#FFEBA2"/>
<rect id="__esp_[AC101]HPOUTR" x="519" y="445" width="30" height="20" fill="#FFEBA2"/>
<rect id="__esp_5" x="519" y="419" width="30" height="20" fill="#FFEBA2"/>
<rect id="__esp_18" x="519" y="392" width="30" height="20" fill="#FFEBA2"/>
<rect id="__esp_23" x="519" y="367" width="30" height="20" fill="#FFEBA2"/>
<rect id="__esp_19" x="519" y="341" width="30" height="20" fill="#FFEBA2"/>
<rect id="__esp_22" x="519" y="314" width="30" height="20" fill="#FFEBA2"/>
<rect id="__esp_21" x="519" y="289" width="30" height="20" fill="#FFEBA2"/>
<rect id="__esp_en" x="519" y="263" width="30" height="20" fill="#FFEBA2"/>
<rect id="__esp_1" x="519" y="237" width="30" height="20" fill="#FFEBA2"/>
<rect id="__esp_3" x="519" y="211" width="30" height="20" fill="#FFEBA2"/>
<rect id="__esp_gnd_2" x="519" y="186" width="30" height="20" fill="#FFEBA2"/>
</g>
<g id="pins left">
<rect id="__esp_gnd_1" x="128" y="653" width="30" height="20" fill="#FFEBA2"/>
<rect id="__esp_[AC101]MIC1N" x="128" y="627" width="30" height="20" fill="#FFEBA2"/>
<rect id="__esp_[AC101]MIC1P" x="128" y="601" width="30" height="20" fill="#FFEBA2"/>
<rect id="__esp_[AC101]MBIAS" x="128" y="575" width="30" height="20" fill="#FFEBA2"/>
<rect id="__esp_[AC101]MIC2P" x="128" y="550" width="30" height="20" fill="#FFEBA2"/>
<rect id="__esp_[AC101]MIC2N" x="128" y="523" width="30" height="20" fill="#FFEBA2"/>
<rect id="__esp_[AC101]HBIAS" x="128" y="497" width="30" height="20" fill="#FFEBA2"/>
<rect id="__esp_4" x="128" y="471" width="30" height="20" fill="#FFEBA2"/>
<rect id="__esp_2" x="128" y="445" width="30" height="20" fill="#FFEBA2"/>
<rect id="__esp_15" x="128" y="419" width="30" height="20" fill="#FFEBA2"/>
<rect id="__esp_13" x="128" y="392" width="30" height="20" fill="#FFEBA2"/>
<rect id="__esp_12" x="128" y="367" width="30" height="20" fill="#FFEBA2"/>
<rect id="__esp_14" x="128" y="341" width="30" height="20" fill="#FFEBA2"/>
<rect id="__esp_0" x="128" y="314" width="30" height="20" fill="#FFEBA2"/>
<rect id="__esp_34" x="128" y="289" width="30" height="20" fill="#FFEBA2"/>
<rect id="__esp_36" x="128" y="263" width="30" height="20" fill="#FFEBA2"/>
<rect id="__esp_39" x="128" y="237" width="30" height="20" fill="#FFEBA2"/>
<rect id="__esp_3.3" x="128" y="211" width="30" height="20" fill="#FFEBA2"/>
<rect id="__esp_gnd_0" x="128" y="185" width="30" height="20" fill="#FFEBA2"/>
</g>
<g id="Shield">
<path d="M166 233H508V673H166V233Z" fill="#D5D6D1"/>
<path d="M166 168H390V233H166V168Z" fill="#D5D6D1"/>
</g>
<path id="ESP32-A1S" d="M233 499.569H200.879V477.172H207.184V491.805H213.771V478.317H220.092V491.805H226.695V477.172H233V499.569ZM210.509 454.947C209.359 455.052 208.465 455.517 207.827 456.343C207.179 457.159 206.854 458.325 206.854 459.841C206.854 460.845 206.985 461.681 207.247 462.35C207.508 463.02 207.869 463.521 208.329 463.856C208.778 464.191 209.296 464.363 209.882 464.374C210.362 464.395 210.786 464.3 211.152 464.091C211.518 463.872 211.842 463.558 212.124 463.15C212.396 462.732 212.637 462.23 212.846 461.645C213.055 461.059 213.238 460.4 213.395 459.668L214.022 456.908C214.367 455.319 214.827 453.918 215.402 452.705C215.977 451.481 216.662 450.457 217.457 449.631C218.252 448.794 219.167 448.161 220.202 447.733C221.237 447.304 222.397 447.084 223.684 447.074C225.712 447.084 227.453 447.597 228.906 448.611C230.36 449.625 231.473 451.084 232.247 452.987C233.021 454.879 233.408 457.164 233.408 459.841C233.408 462.528 233.005 464.87 232.2 466.867C231.395 468.865 230.172 470.417 228.53 471.526C226.888 472.634 224.813 473.204 222.303 473.235V465.801C223.339 465.738 224.201 465.461 224.891 464.97C225.581 464.478 226.104 463.804 226.46 462.946C226.815 462.079 226.993 461.075 226.993 459.935C226.993 458.889 226.852 458.001 226.569 457.269C226.287 456.526 225.895 455.956 225.393 455.559C224.891 455.162 224.316 454.958 223.668 454.947C223.061 454.958 222.544 455.146 222.115 455.512C221.676 455.878 221.3 456.443 220.986 457.206C220.662 457.959 220.364 458.921 220.092 460.092L219.308 463.448C218.67 466.23 217.64 468.42 216.218 470.02C214.785 471.62 212.851 472.414 210.415 472.404C208.428 472.414 206.687 471.881 205.192 470.804C203.697 469.727 202.531 468.237 201.694 466.334C200.858 464.431 200.44 462.262 200.44 459.825C200.44 457.337 200.863 455.177 201.71 453.348C202.547 451.507 203.723 450.08 205.239 449.066C206.755 448.052 208.512 447.534 210.509 447.513V454.947ZM233 443.153H200.879V429.884C200.879 427.479 201.349 425.404 202.29 423.657C203.221 421.901 204.523 420.547 206.196 419.595C207.858 418.644 209.793 418.168 211.999 418.168C214.216 418.168 216.155 418.654 217.818 419.627C219.47 420.589 220.751 421.964 221.66 423.752C222.57 425.54 223.025 427.662 223.025 430.119V438.307H216.908V431.562C216.908 430.391 216.704 429.414 216.296 428.629C215.889 427.835 215.319 427.233 214.587 426.826C213.844 426.418 212.982 426.214 211.999 426.214C211.006 426.214 210.148 426.418 209.427 426.826C208.695 427.233 208.13 427.835 207.733 428.629C207.335 429.424 207.137 430.402 207.137 431.562V435.389H233V443.153ZM233.439 402.186C233.439 404.633 233.021 406.802 232.184 408.695C231.337 410.577 230.172 412.062 228.687 413.149C227.202 414.237 225.493 414.791 223.558 414.812V407.001C224.259 406.97 224.881 406.745 225.425 406.326C225.958 405.908 226.376 405.338 226.679 404.617C226.983 403.895 227.134 403.075 227.134 402.154C227.134 401.234 226.972 400.424 226.648 399.723C226.313 399.012 225.858 398.458 225.283 398.061C224.698 397.664 224.029 397.47 223.276 397.481C222.523 397.47 221.854 397.684 221.268 398.124C220.683 398.563 220.228 399.185 219.904 399.99C219.58 400.785 219.417 401.726 219.417 402.813V405.934H213.897V402.813C213.897 401.862 213.74 401.025 213.426 400.304C213.112 399.572 212.673 399.002 212.109 398.594C211.534 398.186 210.875 397.988 210.132 397.998C209.411 397.988 208.778 398.16 208.235 398.516C207.68 398.861 207.252 399.347 206.949 399.974C206.645 400.591 206.494 401.308 206.494 402.123C206.494 402.981 206.645 403.759 206.949 404.46C207.252 405.15 207.68 405.699 208.235 406.107C208.789 406.515 209.432 406.729 210.164 406.75V414.169C208.25 414.148 206.567 413.614 205.114 412.569C203.65 411.523 202.505 410.101 201.679 408.303C200.853 406.494 200.44 404.434 200.44 402.123C200.44 399.823 200.842 397.8 201.647 396.053C202.452 394.307 203.55 392.948 204.941 391.975C206.321 391.003 207.884 390.517 209.631 390.517C211.439 390.506 212.929 391.097 214.101 392.289C215.272 393.471 215.993 394.992 216.265 396.853H216.516C216.809 394.365 217.614 392.488 218.931 391.223C220.249 389.947 221.896 389.314 223.872 389.325C225.733 389.325 227.385 389.874 228.828 390.972C230.26 392.059 231.39 393.575 232.216 395.52C233.031 397.454 233.439 399.676 233.439 402.186ZM233 384.945H227.416L217.159 373.229C216.364 372.351 215.638 371.603 214.979 370.986C214.31 370.369 213.64 369.899 212.971 369.575C212.292 369.25 211.554 369.088 210.76 369.088C209.871 369.088 209.113 369.282 208.486 369.669C207.848 370.055 207.356 370.589 207.011 371.268C206.666 371.948 206.494 372.727 206.494 373.605C206.494 374.494 206.677 375.273 207.043 375.942C207.398 376.611 207.916 377.134 208.595 377.511C209.275 377.877 210.101 378.06 211.074 378.06V385.416C208.888 385.416 207.001 384.924 205.412 383.941C203.822 382.958 202.599 381.578 201.741 379.801C200.874 378.013 200.44 375.937 200.44 373.574C200.44 371.138 200.847 369.02 201.663 367.222C202.479 365.423 203.618 364.033 205.082 363.05C206.536 362.057 208.224 361.56 210.148 361.56C211.372 361.56 212.584 361.806 213.787 362.297C214.989 362.788 216.317 363.672 217.771 364.948C219.224 366.213 220.965 368.011 222.993 370.343L226.538 374.186H226.742V361.168H233V384.945ZM213.991 341.3H219.888V356.168H213.991V341.3ZM233 328.937V337.281L200.879 326.443V316.107L233 305.269V313.613L208.972 321.157V321.408L233 328.937ZM220.359 330.05V312.61H226.256V330.05H220.359ZM200.879 288.53H233V296.278H208.125V296.467L212.516 303.65H205.804L200.879 295.729V288.53ZM210.509 264.004C209.359 264.109 208.465 264.574 207.827 265.4C207.179 266.216 206.854 267.382 206.854 268.898C206.854 269.902 206.985 270.738 207.247 271.407C207.508 272.076 207.869 272.578 208.329 272.913C208.778 273.247 209.296 273.42 209.882 273.43C210.362 273.451 210.786 273.357 211.152 273.148C211.518 272.929 211.842 272.615 212.124 272.207C212.396 271.789 212.637 271.287 212.846 270.701C213.055 270.116 213.238 269.457 213.395 268.725L214.022 265.965C214.367 264.375 214.827 262.974 215.402 261.761C215.977 260.538 216.662 259.513 217.457 258.687C218.252 257.851 219.167 257.218 220.202 256.79C221.237 256.361 222.397 256.141 223.684 256.131C225.712 256.141 227.453 256.654 228.906 257.668C230.36 258.682 231.473 260.141 232.247 262.044C233.021 263.936 233.408 266.221 233.408 268.898C233.408 271.585 233.005 273.927 232.2 275.924C231.395 277.921 230.172 279.474 228.53 280.582C226.888 281.691 224.813 282.261 222.303 282.292V274.858C223.339 274.795 224.201 274.518 224.891 274.026C225.581 273.535 226.104 272.861 226.46 272.003C226.815 271.135 226.993 270.132 226.993 268.992C226.993 267.946 226.852 267.057 226.569 266.326C226.287 265.583 225.895 265.013 225.393 264.616C224.891 264.219 224.316 264.015 223.668 264.004C223.061 264.015 222.544 264.203 222.115 264.569C221.676 264.935 221.3 265.499 220.986 266.263C220.662 267.016 220.364 267.978 220.092 269.149L219.308 272.505C218.67 275.286 217.64 277.477 216.218 279.077C214.785 280.677 212.851 281.471 210.415 281.461C208.428 281.471 206.687 280.938 205.192 279.861C203.697 278.784 202.531 277.294 201.694 275.391C200.858 273.488 200.44 271.318 200.44 268.882C200.44 266.393 200.863 264.234 201.71 262.404C202.547 260.564 203.723 259.137 205.239 258.123C206.755 257.108 208.512 256.591 210.509 256.57V264.004Z" fill="#A6A094"/>
<path id="WiFi+BT Soc Inside" d="M466 627.923L436.909 636.247V629.528L457.122 624.713V624.472L436.909 619.159V613.406L457.165 608.108V607.852L436.909 603.037V596.318L466 604.642V610.636L446.98 616.176V616.403L466 621.929V627.923ZM466 593.14H444.182V587.089H466V593.14ZM441.369 590.1C441.369 591 441.071 591.772 440.474 592.415C439.868 593.05 439.144 593.367 438.301 593.367C437.468 593.367 436.753 593.05 436.156 592.415C435.55 591.772 435.247 591 435.247 590.1C435.247 589.201 435.55 588.433 436.156 587.799C436.753 587.155 437.468 586.833 438.301 586.833C439.144 586.833 439.868 587.155 440.474 587.799C441.071 588.433 441.369 589.201 441.369 590.1ZM466 582.128H436.909V562.866H441.98V575.977H448.912V564.145H453.983V575.977H466V582.128ZM466 558.843H444.182V552.792H466V558.843ZM441.369 555.803C441.369 556.703 441.071 557.475 440.474 558.119C439.868 558.753 439.144 559.07 438.301 559.07C437.468 559.07 436.753 558.753 436.156 558.119C435.55 557.475 435.247 556.703 435.247 555.803C435.247 554.904 435.55 554.137 436.156 553.502C436.753 552.858 437.468 552.536 438.301 552.536C439.144 552.536 439.868 552.858 440.474 553.502C441.071 554.137 441.369 554.904 441.369 555.803ZM464.423 539.308H444.31V534.223H464.423V539.308ZM456.909 546.822H451.824V526.709H456.909V546.822ZM466 520.643H436.909V508.996C436.909 506.856 437.226 505.071 437.861 503.641C438.495 502.211 439.376 501.136 440.503 500.416C441.62 499.696 442.908 499.337 444.366 499.337C445.503 499.337 446.502 499.564 447.364 500.018C448.216 500.473 448.917 501.098 449.466 501.893C450.006 502.679 450.389 503.579 450.616 504.592H450.901C450.948 503.484 451.26 502.447 451.838 501.482C452.416 500.506 453.225 499.715 454.267 499.109C455.299 498.503 456.53 498.2 457.96 498.2C459.504 498.2 460.882 498.584 462.094 499.351C463.296 500.108 464.248 501.231 464.949 502.717C465.65 504.204 466 506.036 466 508.214V520.643ZM460.972 514.493V509.479C460.972 507.765 460.645 506.515 459.991 505.729C459.329 504.943 458.448 504.55 457.349 504.55C456.545 504.55 455.834 504.744 455.219 505.132C454.603 505.52 454.12 506.074 453.77 506.794C453.42 507.504 453.244 508.352 453.244 509.337V514.493H460.972ZM449.082 514.493V509.933C449.082 509.09 448.936 508.342 448.642 507.689C448.339 507.026 447.913 506.505 447.364 506.126C446.814 505.738 446.156 505.544 445.389 505.544C444.338 505.544 443.491 505.918 442.847 506.666C442.203 507.405 441.881 508.456 441.881 509.82V514.493H449.082ZM441.98 495.306H436.909V471.414H441.98V480.32H466V486.4H441.98V495.306ZM445.276 442.44C444.13 442.554 443.24 443.042 442.605 443.903C441.971 444.765 441.653 445.935 441.653 447.412C441.653 448.416 441.795 449.263 442.08 449.955C442.354 450.646 442.738 451.176 443.23 451.545C443.723 451.905 444.281 452.085 444.906 452.085C445.427 452.104 445.882 451.995 446.27 451.759C446.658 451.512 446.994 451.176 447.278 450.75C447.553 450.324 447.795 449.831 448.003 449.273C448.202 448.714 448.372 448.117 448.514 447.483L449.139 444.869C449.423 443.6 449.802 442.436 450.276 441.375C450.749 440.314 451.331 439.396 452.023 438.619C452.714 437.843 453.528 437.241 454.466 436.815C455.403 436.38 456.478 436.157 457.69 436.148C459.471 436.157 461.014 436.612 462.321 437.511C463.618 438.402 464.627 439.689 465.347 441.375C466.057 443.051 466.412 445.073 466.412 447.44C466.412 449.789 466.052 451.834 465.332 453.577C464.613 455.31 463.547 456.664 462.136 457.639C460.716 458.605 458.959 459.112 456.866 459.159V453.207C457.842 453.141 458.656 452.862 459.31 452.369C459.954 451.867 460.441 451.2 460.773 450.366C461.095 449.524 461.256 448.572 461.256 447.511C461.256 446.47 461.104 445.565 460.801 444.798C460.498 444.022 460.077 443.42 459.537 442.994C458.997 442.568 458.377 442.355 457.676 442.355C457.023 442.355 456.473 442.549 456.028 442.938C455.583 443.316 455.205 443.875 454.892 444.614C454.58 445.343 454.295 446.238 454.04 447.298L453.244 450.466C452.648 452.919 451.715 454.855 450.446 456.276C449.177 457.696 447.468 458.402 445.318 458.392C443.557 458.402 442.018 457.933 440.702 456.986C439.385 456.029 438.358 454.718 437.619 453.051C436.881 451.384 436.511 449.491 436.511 447.369C436.511 445.21 436.881 443.326 437.619 441.716C438.358 440.097 439.385 438.837 440.702 437.938C442.018 437.038 443.543 436.574 445.276 436.545V442.44ZM466.426 422.266C466.426 424.473 465.957 426.381 465.02 427.991C464.073 429.591 462.757 430.827 461.071 431.698C459.376 432.569 457.411 433.005 455.176 433.005C452.922 433.005 450.953 432.569 449.267 431.698C447.572 430.827 446.256 429.591 445.318 427.991C444.371 426.381 443.898 424.473 443.898 422.266C443.898 420.06 444.371 418.156 445.318 416.556C446.256 414.946 447.572 413.706 449.267 412.835C450.953 411.963 452.922 411.528 455.176 411.528C457.411 411.528 459.376 411.963 461.071 412.835C462.757 413.706 464.073 414.946 465.02 416.556C465.957 418.156 466.426 420.06 466.426 422.266ZM461.739 422.238C461.739 421.234 461.455 420.396 460.886 419.724C460.309 419.051 459.523 418.545 458.528 418.204C457.534 417.853 456.402 417.678 455.134 417.678C453.865 417.678 452.733 417.853 451.739 418.204C450.744 418.545 449.958 419.051 449.381 419.724C448.803 420.396 448.514 421.234 448.514 422.238C448.514 423.251 448.803 424.103 449.381 424.795C449.958 425.477 450.744 425.993 451.739 426.343C452.733 426.684 453.865 426.854 455.134 426.854C456.402 426.854 457.534 426.684 458.528 426.343C459.523 425.993 460.309 425.477 460.886 424.795C461.455 424.103 461.739 423.251 461.739 422.238ZM466.426 397.735C466.426 399.97 465.953 401.892 465.006 403.502C464.049 405.103 462.723 406.334 461.028 407.195C459.333 408.048 457.383 408.474 455.176 408.474C452.941 408.474 450.981 408.043 449.295 407.181C447.6 406.31 446.279 405.074 445.332 403.474C444.376 401.873 443.898 399.97 443.898 397.763C443.898 395.86 444.243 394.193 444.935 392.763C445.626 391.334 446.597 390.202 447.847 389.369C449.097 388.535 450.564 388.076 452.25 387.991V393.701C451.161 393.862 450.285 394.288 449.622 394.979C448.95 395.661 448.614 396.556 448.614 397.664C448.614 398.602 448.869 399.421 449.381 400.121C449.883 400.813 450.616 401.353 451.582 401.741C452.548 402.129 453.718 402.323 455.091 402.323C456.483 402.323 457.667 402.134 458.642 401.755C459.617 401.367 460.361 400.822 460.872 400.121C461.384 399.421 461.639 398.602 461.639 397.664C461.639 396.973 461.497 396.353 461.213 395.803C460.929 395.245 460.517 394.785 459.977 394.425C459.428 394.056 458.77 393.815 458.003 393.701V387.991C459.67 388.085 461.137 388.54 462.406 389.354C463.666 390.159 464.651 391.272 465.361 392.692C466.071 394.113 466.426 395.794 466.426 397.735ZM436.909 368.594H466V374.745H436.909V368.594ZM453.386 357.597H466V363.648H444.182V357.881H448.031V357.625C446.762 357.142 445.759 356.332 445.02 355.196C444.272 354.06 443.898 352.682 443.898 351.062C443.898 349.547 444.229 348.226 444.892 347.099C445.555 345.973 446.502 345.097 447.733 344.472C448.955 343.847 450.413 343.534 452.108 343.534H466V349.585H453.188C451.852 349.576 450.811 349.917 450.062 350.608C449.305 351.299 448.926 352.251 448.926 353.463C448.926 354.277 449.101 354.997 449.452 355.622C449.802 356.238 450.313 356.721 450.986 357.071C451.649 357.412 452.449 357.587 453.386 357.597ZM450.403 320.612L450.744 326.151C450.271 326.246 449.845 326.45 449.466 326.762C449.078 327.075 448.77 327.487 448.543 327.998C448.306 328.5 448.188 329.101 448.188 329.802C448.188 330.739 448.386 331.53 448.784 332.174C449.172 332.818 449.693 333.14 450.347 333.14C450.867 333.14 451.308 332.932 451.668 332.515C452.027 332.098 452.316 331.383 452.534 330.37L453.33 326.421C453.765 324.3 454.466 322.719 455.432 321.677C456.398 320.635 457.667 320.114 459.239 320.114C460.669 320.114 461.923 320.536 463.003 321.379C464.082 322.212 464.925 323.358 465.531 324.816C466.128 326.265 466.426 327.936 466.426 329.83C466.426 332.719 465.825 335.02 464.622 336.734C463.41 338.438 461.762 339.437 459.679 339.731L459.366 333.779C460.247 333.599 460.92 333.164 461.384 332.472C461.838 331.781 462.065 330.896 462.065 329.816C462.065 328.755 461.862 327.903 461.455 327.259C461.038 326.606 460.503 326.274 459.849 326.265C459.3 326.274 458.85 326.506 458.5 326.961C458.14 327.415 457.866 328.116 457.676 329.063L456.923 332.842C456.497 334.972 455.759 336.558 454.707 337.6C453.656 338.632 452.316 339.148 450.688 339.148C449.286 339.148 448.079 338.77 447.065 338.012C446.052 337.245 445.271 336.17 444.722 334.788C444.172 333.396 443.898 331.767 443.898 329.901C443.898 327.146 444.48 324.977 445.645 323.396C446.81 321.805 448.396 320.877 450.403 320.612ZM466 316.304H444.182V310.253H466V316.304ZM441.369 313.264C441.369 314.164 441.071 314.936 440.474 315.58C439.868 316.214 439.144 316.531 438.301 316.531C437.468 316.531 436.753 316.214 436.156 315.58C435.55 314.936 435.247 314.164 435.247 313.264C435.247 312.365 435.55 311.598 436.156 310.963C436.753 310.319 437.468 309.997 438.301 309.997C439.144 309.997 439.868 310.319 440.474 310.963C441.071 311.598 441.369 312.365 441.369 313.264ZM466.355 297.366C466.355 299.023 465.929 300.524 465.077 301.869C464.215 303.204 462.951 304.264 461.284 305.05C459.608 305.827 457.553 306.215 455.119 306.215C452.619 306.215 450.541 305.813 448.884 305.008C447.217 304.203 445.972 303.133 445.148 301.798C444.314 300.453 443.898 298.98 443.898 297.38C443.898 296.158 444.106 295.14 444.523 294.326C444.93 293.502 445.441 292.839 446.057 292.337C446.663 291.826 447.259 291.438 447.847 291.173V290.988H436.909V284.951H466V290.917H462.506V291.173C463.112 291.457 463.713 291.859 464.31 292.38C464.897 292.891 465.384 293.559 465.773 294.383C466.161 295.197 466.355 296.192 466.355 297.366ZM461.54 295.448C461.54 294.473 461.275 293.649 460.744 292.977C460.205 292.295 459.452 291.774 458.486 291.414C457.52 291.045 456.388 290.86 455.091 290.86C453.794 290.86 452.667 291.04 451.71 291.4C450.754 291.76 450.015 292.281 449.494 292.962C448.973 293.644 448.713 294.473 448.713 295.448C448.713 296.442 448.983 297.281 449.523 297.962C450.062 298.644 450.811 299.16 451.767 299.511C452.723 299.861 453.831 300.036 455.091 300.036C456.36 300.036 457.482 299.861 458.457 299.511C459.423 299.151 460.181 298.635 460.73 297.962C461.27 297.281 461.54 296.442 461.54 295.448ZM466.426 270.033C466.426 272.277 465.972 274.209 465.062 275.828C464.144 277.438 462.847 278.679 461.17 279.55C459.485 280.421 457.491 280.857 455.19 280.857C452.946 280.857 450.976 280.421 449.281 279.55C447.586 278.679 446.265 277.452 445.318 275.871C444.371 274.28 443.898 272.414 443.898 270.274C443.898 268.835 444.13 267.495 444.594 266.254C445.048 265.004 445.735 263.915 446.653 262.987C447.572 262.05 448.727 261.321 450.119 260.8C451.502 260.279 453.121 260.018 454.977 260.018H456.639V278.442H452.889V265.714C452.018 265.714 451.246 265.904 450.574 266.283C449.902 266.661 449.376 267.187 448.997 267.859C448.609 268.522 448.415 269.294 448.415 270.175C448.415 271.093 448.628 271.908 449.054 272.618C449.471 273.319 450.034 273.868 450.744 274.266C451.445 274.663 452.226 274.867 453.088 274.876H456.653C457.733 274.876 458.666 274.678 459.452 274.28C460.238 273.873 460.844 273.3 461.27 272.561C461.696 271.822 461.909 270.946 461.909 269.933C461.909 269.261 461.814 268.645 461.625 268.087C461.436 267.528 461.152 267.05 460.773 266.652C460.394 266.254 459.93 265.951 459.381 265.743L459.75 260.146C461.095 260.43 462.269 261.013 463.273 261.893C464.267 262.765 465.044 263.892 465.602 265.274C466.152 266.647 466.426 268.233 466.426 270.033Z" fill="#A6A094"/>
<circle id="Ellipse 11" cx="247" cy="580" r="55" stroke="#A6A094" stroke-width="4"/>
</g>
</g>
</g>
<defs>
<filter id="filter0_d_6_336" x="37" y="172" width="610" height="702" filterUnits="userSpaceOnUse" color-interpolation-filters="sRGB">
<feFlood flood-opacity="0" result="BackgroundImageFix"/>
<feColorMatrix in="SourceAlpha" type="matrix" values="0 0 0 0 0 0 0 0 0 0 0 0 0 0 0 0 0 0 127 0" result="hardAlpha"/>
<feOffset dy="4"/>
<feGaussianBlur stdDeviation="2"/>
<feComposite in2="hardAlpha" operator="out"/>
<feColorMatrix type="matrix" values="0 0 0 0 0 0 0 0 0 0 0 0 0 0 0 0 0 0 0.25 0"/>
<feBlend mode="normal" in2="BackgroundImageFix" result="effect1_dropShadow_6_336"/>
<feBlend mode="normal" in="SourceGraphic" in2="effect1_dropShadow_6_336" result="shape"/>
</filter>
<filter id="filter1_d_6_336" x="139" y="37" width="396" height="658" filterUnits="userSpaceOnUse" color-interpolation-filters="sRGB">
<feFlood flood-opacity="0" result="BackgroundImageFix"/>
<feColorMatrix in="SourceAlpha" type="matrix" values="0 0 0 0 0 0 0 0 0 0 0 0 0 0 0 0 0 0 127 0" result="hardAlpha"/>
<feOffset dy="4"/>
<feGaussianBlur stdDeviation="2"/>
<feComposite in2="hardAlpha" operator="out"/>
<feColorMatrix type="matrix" values="0 0 0 0 0 0 0 0 0 0 0 0 0 0 0 0 0 0 0.25 0"/>
<feBlend mode="normal" in2="BackgroundImageFix" result="effect1_dropShadow_6_336"/>
<feBlend mode="normal" in="SourceGraphic" in2="effect1_dropShadow_6_336" result="shape"/>
</filter>
</defs>
</svg>
