<svg width="54" height="70" viewBox="0 0 54 70" fill="none" xmlns="http://www.w3.org/2000/svg">
<path fill-rule="evenodd" clip-rule="evenodd" d="M19.54 0.880005L1.15999 19.26C14.76 21.8 21.69 26.42 46.41 51.79L49.24 54.62C49.58 55.41 49.58 55.91 49.59 56.65V57.09C49.5531 58.3005 49.3166 59.4966 48.89 60.63C48.4683 61.5618 47.8668 62.4012 47.12 63.1C46.42 63.8 45.57 64.5 44.64 64.87H44.62C43.7 65.24 42.82 65.6 41.82 65.57H41.31C40.41 65.57 39.42 65.57 38.63 65.22C37.69 64.82 35.83 63.83 35.1 63.1L33.68 61.69L6.09999 34.1C5.62244 33.6388 5.24153 33.087 4.97948 32.477C4.71744 31.867 4.5795 31.2109 4.57373 30.547C4.56797 29.8831 4.69447 29.2247 4.94588 28.6102C5.19728 27.9958 5.56855 27.4375 6.03801 26.968C6.50748 26.4986 7.06574 26.1273 7.68022 25.8759C8.2947 25.6245 8.9531 25.498 9.61699 25.5038C10.2809 25.5095 10.937 25.6475 11.547 25.9095C12.157 26.1715 12.7088 26.5525 13.17 27.03L41.46 55.31L42.16 56.02L42.18 56.04C42.22 56.12 42.38 56.39 42.38 56.66C42.38 56.93 42.32 57.07 42.23 57.29L42.17 57.44C42.17 57.44 42.07 57.57 41.83 57.81C41.4028 58.2358 40.8376 58.495 40.2362 58.5408C39.6348 58.5867 39.0368 58.4161 38.55 58.06L34.39 53.9L20.6 40.12H20.61C20.4712 39.9816 20.3611 39.8172 20.286 39.6361C20.2108 39.4551 20.1722 39.261 20.1722 39.065C20.1722 38.869 20.2108 38.6749 20.286 38.4939C20.3611 38.3128 20.4712 38.1484 20.61 38.01V38L21.37 37.25L19.26 35.13L18.48 35.88L18.14 36.25C17.5056 37.0492 17.1604 38.0396 17.1604 39.06C17.1604 40.0804 17.5056 41.0708 18.14 41.87L18.13 41.89L18.48 42.24L36.5 60.27L36.52 60.26C37.5752 61.1351 38.9191 61.5846 40.2885 61.5204C41.6578 61.4562 42.9538 60.883 43.9226 59.913C44.8913 58.943 45.4628 57.6463 45.5253 56.2769C45.5877 54.9074 45.1364 53.5641 44.26 52.51L44.28 52.5L43.93 52.14L24.41 32.63C19.43 27.65 8.74999 22.13 6.63999 22.09C5.44719 22.506 4.35624 23.1703 3.43917 24.0391C2.52211 24.9079 1.79981 25.9614 1.31999 27.13C0.640437 28.7734 0.462989 30.5813 0.810043 32.3255C1.1571 34.0697 2.0131 35.6719 3.26999 36.93L30.84 64.52L32.96 66.64L32.99 66.61C35.3246 68.6122 38.2757 69.7523 41.35 69.84C43.0069 69.8972 44.6579 69.613 46.2004 69.0051C47.7428 68.3972 49.1438 67.4785 50.3161 66.3061C51.4884 65.1338 52.4071 63.7329 53.0151 62.1904C53.623 60.648 53.9072 58.997 53.85 57.34C53.7491 53.9232 52.3511 50.6731 49.94 48.25C27.29 25.25 21.34 16.08 19.54 0.880005ZM32.27 20.68L34.39 18.55L37.92 22.09L35.8 24.21L35.1 23.51L32.27 26.33L30.15 24.21L32.97 21.38L32.27 20.68Z" fill="white"/>
</svg>
