<svg xmlns="http://www.w3.org/2000/svg" width="151" height="76" fill="none">
    <style>
        .textColor {
            fill: #000;
        }
        @media (prefers-color-scheme: dark) {
            .textColor {
                fill: #fff;
            }
        }
    </style>
  <path class="textColor" d="M79.15 37.5H74.6v-4.3h3.87v-1.24H74.6v-3.83H79v-1.25h-5.87v11.86h6.03V37.5Zm8.95 1.44c.18 0 .42-.03.7-.09l-.05-1.07-.27.01c-.4 0-.65-.2-.72-.63a2.9 2.9 0 0 1-.03-.47v-6.73h-1.46v4.85c0 1.32-.37 2.22-1.11 2.7-.3.18-.6.27-.93.27-.81 0-1.3-.43-1.48-1.29a3.32 3.32 0 0 1-.07-.68v-5.85h-1.46v6c0 1.47.54 2.4 1.62 2.77.33.11.69.17 1.07.17 1 0 1.79-.45 2.38-1.35l.17-.28c.07 1 .52 1.56 1.34 1.65l.3.02Zm5.2-1.2c-.52 0-1.02-.12-1.51-.37v-3.7c0-1.2.35-2.02 1.07-2.47.28-.17.57-.26.88-.26.68 0 1.2.37 1.56 1.1.26.52.39 1.16.39 1.9 0 1.77-.43 2.94-1.3 3.5-.33.2-.7.3-1.1.3Zm-1.51 4.57V38.7c.54.17 1.06.25 1.56.25 1.35 0 2.37-.6 3.08-1.81.5-.88.75-1.95.75-3.2 0-1.62-.46-2.8-1.39-3.55a2.65 2.65 0 0 0-1.72-.62c-.98.01-1.76.46-2.32 1.34l-.05-1.14h-1.35V42.3h1.44Zm14.46-4.51c-.4.03-.64-.12-.7-.46-.02-.1-.03-.24-.03-.39v-4.18c0-1.43-.5-2.36-1.46-2.8a2.8 2.8 0 0 0-1.1-.2 2.76 2.76 0 0 0-2.4 1.4l.02-5.17h-1.46v12.74h1.46v-4.87c0-1.33.37-2.23 1.12-2.7.27-.17.56-.25.86-.25.75 0 1.23.4 1.43 1.2.06.24.08.5.08.77v4.17c.03 1.45.77 2.05 2.24 1.8l-.06-1.07Zm4.95-.06c-1 0-1.66-.55-2.01-1.67a5.79 5.79 0 0 1-.23-1.7c0-1.53.4-2.56 1.18-3.1.33-.2.69-.31 1.09-.31 1 0 1.66.58 2 1.74.14.48.21 1.03.21 1.67 0 1.58-.41 2.62-1.25 3.1-.3.18-.63.27-1 .27Zm.06-7.98c-1.43 0-2.48.61-3.16 1.83-.42.77-.63 1.7-.63 2.78 0 2.01.6 3.38 1.79 4.1.54.3 1.17.47 1.88.47 1.51 0 2.59-.65 3.23-1.94.38-.73.57-1.61.57-2.63 0-2-.58-3.35-1.72-4.08a3.55 3.55 0 0 0-1.96-.53Zm12.69 8.04c-.4.03-.63-.1-.7-.4a2.63 2.63 0 0 1-.03-.45v-4.22c0-1.38-.48-2.29-1.43-2.72a2.6 2.6 0 0 0-1.14-.25c-1.07.01-1.88.52-2.43 1.53l-.03-1.33h-1.37v8.78h1.44v-4.81c0-1.35.38-2.26 1.13-2.74.28-.18.58-.27.9-.27.72 0 1.19.4 1.4 1.18.06.25.09.52.09.8v4.16c.02 1.23.55 1.85 1.6 1.86.22 0 .43-.02.63-.07l-.06-1.06Zm3.27.94v-8.78h-1.44v8.78h1.44Zm.27-11.33c0-.53-.22-.87-.65-1a.93.93 0 0 0-.34-.06c-.45 0-.75.21-.9.63a1.6 1.6 0 0 0-.06.43c0 .52.2.86.63 1.02.12.03.23.05.33.05.46 0 .77-.21.92-.63.05-.14.07-.3.07-.44Zm9.11 11.53c.18 0 .42-.03.7-.09l-.06-1.07-.26.01c-.41 0-.65-.2-.72-.63-.02-.14-.03-.3-.03-.47v-6.73h-1.46v4.85c0 1.32-.37 2.22-1.11 2.7-.3.18-.6.27-.93.27-.81 0-1.3-.43-1.48-1.29a3.3 3.3 0 0 1-.07-.68v-5.85h-1.46v6c0 1.47.54 2.4 1.62 2.77.33.11.68.17 1.07.17 1 0 1.79-.45 2.37-1.35l.18-.28c.07 1 .51 1.56 1.33 1.65l.3.02Zm13.3-6.21c0-1.36-.45-2.27-1.35-2.72a2.44 2.44 0 0 0-1.11-.25c-.94 0-1.68.44-2.23 1.32-.1.14-.18.29-.25.44-.31-.97-.93-1.54-1.83-1.7a2.6 2.6 0 0 0-.5-.06c-.98 0-1.76.46-2.34 1.37l-.07.13-.04-1.3h-1.37v8.78h1.44v-4.83c0-1.37.38-2.28 1.14-2.74.27-.17.55-.25.85-.25.71 0 1.17.4 1.37 1.18.06.25.08.5.08.8v5.84h1.45v-4.83c0-1.38.37-2.3 1.12-2.76.26-.15.53-.23.81-.23.63 0 1.06.36 1.27 1.07.08.27.12.57.12.9v4.17c.02 1.45.77 2.05 2.25 1.8l-.07-1.07c-.41.04-.65-.11-.7-.45-.03-.1-.04-.24-.04-.39v-4.22ZM74.13 48.6l-.11-.26a.96.96 0 0 1-.43.12c-.32 0-.5-.2-.54-.62v-2.67h.97v-.33h-.97v-1.06h-.4v1.06H72v.33h.65v2.61c0 .51.17.84.52.97.1.04.2.06.31.06.21 0 .43-.08.65-.2Zm1.14.14v-3.9h-.4v3.9h.4Zm.11-5.03c0-.18-.07-.3-.22-.33l-.09-.01c-.16 0-.25.08-.29.23a.37.37 0 0 0-.01.1c0 .2.07.3.23.34h.07c.16 0 .26-.07.3-.23a.37.37 0 0 0 .01-.1Zm4.15 4.77c-.19.02-.3-.04-.33-.19a1.27 1.27 0 0 1-.03-.27v-1.96c0-.64-.22-1.04-.68-1.2a1.25 1.25 0 0 0-.45-.08c-.5 0-.86.25-1.1.73v-.67h-.38v3.9h.4v-2.23c0-.6.19-1.02.54-1.26.15-.1.31-.15.48-.15.39 0 .63.2.74.61.03.13.05.26.05.4v1.95c.03.48.23.73.58.75a.8.8 0 0 0 .2-.03l-.02-.3Z"/>
  <path class="textColor" d="m82.55 44.84-1.16 3.3-1.17-3.3h-.43l1.4 3.84a3.38 3.38 0 0 1-.64 1.2.67.67 0 0 1-.46.18 1.5 1.5 0 0 1-.59-.16l-.14.31c.26.13.5.19.74.19.44 0 .81-.3 1.1-.89.07-.14.14-.3.2-.48l1.56-4.2h-.4Zm5.72 3.96c.07 0 .15 0 .23-.02l-.02-.3h-.12c-.2 0-.32-.1-.36-.3a1.4 1.4 0 0 1-.02-.27v-1.98c0-.54-.22-.9-.65-1.06-.16-.06-.33-.1-.51-.1-.43.01-.84.14-1.23.38l.16.31c.36-.22.7-.33 1.03-.33.44 0 .7.2.77.6.02.07.02.15.02.23v.58a3.88 3.88 0 0 0-.52-.03c-.7 0-1.17.19-1.44.56a.97.97 0 0 0-.18.57c0 .54.2.9.62 1.07.15.07.33.1.51.1a1.2 1.2 0 0 0 1.05-.58c.05.35.24.54.56.57h.1Zm-1.63-.34c-.46 0-.72-.21-.78-.65v-.17c0-.54.4-.81 1.18-.82.2 0 .38.01.53.03v.64a.9.9 0 0 1-.5.86.91.91 0 0 1-.43.11Zm5.52.34c.07 0 .15 0 .23-.02l-.02-.3a.9.9 0 0 1-.12 0c-.2 0-.32-.1-.36-.3a1.4 1.4 0 0 1-.02-.27v-3.07h-.4v2.26c0 .57-.18.98-.52 1.22a.88.88 0 0 1-.52.17c-.39 0-.64-.2-.76-.57a1.59 1.59 0 0 1-.05-.43v-2.65h-.4v2.68c0 .65.23 1.05.71 1.22.14.04.3.07.45.07.47 0 .82-.22 1.07-.65l.04-.1c.02.41.16.65.42.72a.9.9 0 0 0 .25.03Zm2.1-.34c-.34 0-.6-.17-.8-.52-.14-.27-.21-.6-.21-1 0-.76.2-1.3.58-1.6a1 1 0 0 1 .64-.22c.27 0 .54.06.8.19v1.88c0 .6-.2 1-.59 1.18a.96.96 0 0 1-.42.1Zm1-5.38v1.86a2.26 2.26 0 0 0-.83-.16c-.56 0-.98.26-1.28.78a2.8 2.8 0 0 0-.33 1.4c0 .72.2 1.25.6 1.57a1.23 1.23 0 0 0 1.85-.37c.03.42.2.63.54.65.08 0 .15 0 .23-.02l-.02-.31c-.18.02-.29-.05-.32-.2a1.18 1.18 0 0 1-.03-.25v-4.95h-.4Zm2.08 5.66v-3.9h-.4v3.9h.4Zm.11-5.03c0-.18-.07-.3-.22-.33l-.09-.01c-.16 0-.25.08-.29.23a.37.37 0 0 0-.01.1c0 .2.07.3.23.34h.07c.16 0 .26-.07.3-.23a.37.37 0 0 0 .01-.1Zm2.42 4.75c-.5 0-.83-.26-1.03-.79a2.66 2.66 0 0 1-.13-.87c0-.68.18-1.16.53-1.45a1 1 0 0 1 .65-.23c.48 0 .82.26 1 .8.1.25.14.55.14.88 0 .7-.19 1.2-.56 1.48a1 1 0 0 1-.6.18Zm.03-3.68c-.59 0-1.03.26-1.32.78-.2.35-.3.76-.3 1.24 0 .9.27 1.5.79 1.81.23.13.5.2.79.2.6 0 1.06-.27 1.34-.82.17-.33.26-.73.26-1.2 0-.85-.24-1.44-.72-1.77a1.47 1.47 0 0 0-.84-.24Zm6.01 3.68a1.8 1.8 0 0 1-.78-.2v-1.8c0-.55.16-.95.5-1.18.16-.1.33-.16.5-.16.33 0 .6.17.78.5.16.27.23.6.23 1 0 .76-.2 1.3-.58 1.62a1 1 0 0 1-.65.22Zm-.78 1.88v-1.68c.29.1.56.15.81.15.56 0 1-.26 1.3-.78a3 3 0 0 0 .32-1.42c0-.73-.2-1.26-.62-1.58a1.2 1.2 0 0 0-.74-.25c-.47 0-.83.23-1.08.7l-.01-.64h-.4v5.5h.42Zm4.08-1.54c.14 0 .3-.03.45-.1l-.1-.3c-.1.05-.2.07-.28.07-.22-.01-.33-.17-.34-.47v-4.92h-.4v4.97c0 .39.15.63.45.72.07.02.14.03.22.03Zm3.53 0c.08 0 .16 0 .24-.02l-.03-.3h-.11c-.2 0-.33-.1-.36-.3a1.38 1.38 0 0 1-.03-.27v-1.98c0-.54-.21-.9-.64-1.06-.16-.06-.33-.1-.51-.1a2.5 2.5 0 0 0-1.24.38l.17.31c.36-.22.7-.33 1.03-.33.43 0 .7.2.77.6l.02.23v.58a3.89 3.89 0 0 0-.53-.03c-.68 0-1.16.19-1.43.56a.97.97 0 0 0-.18.57c0 .54.2.9.61 1.07.16.07.33.1.52.1a1.21 1.21 0 0 0 1.05-.58c.05.35.24.54.56.57h.1Zm-1.62-.34c-.46 0-.72-.21-.78-.65l-.01-.17c0-.54.4-.81 1.19-.82.2 0 .38.01.53.03v.64a.9.9 0 0 1-.51.86.91.91 0 0 1-.42.11Zm4.25.14-.12-.26a.96.96 0 0 1-.43.12c-.32 0-.5-.2-.53-.62v-2.67h.96v-.33h-.97v-1.06h-.4v1.06h-.65v.33h.65v2.61c0 .51.18.84.53.97.1.04.2.06.3.06.22 0 .43-.08.66-.2Zm2.37-3.43v-.33h-1.04v-.66c.05-.5.23-.78.55-.82.16 0 .33.06.52.17l.16-.29a1.31 1.31 0 0 0-.72-.22.81.81 0 0 0-.8.51c-.08.16-.11.35-.11.56v.75h-.58v.33h.58v3.57h.4v-3.57h1.04Zm1.81 3.29c-.5 0-.83-.26-1.03-.79a2.68 2.68 0 0 1-.13-.87c0-.68.18-1.16.53-1.45a1 1 0 0 1 .65-.23c.49 0 .82.26 1 .8.1.25.14.55.14.88 0 .7-.19 1.2-.56 1.48a1 1 0 0 1-.6.18Zm.03-3.68c-.59 0-1.03.26-1.32.78-.2.35-.3.76-.3 1.24 0 .9.27 1.5.79 1.81.23.13.5.2.79.2.6 0 1.06-.27 1.34-.82.18-.33.26-.73.26-1.2 0-.85-.24-1.44-.72-1.77a1.47 1.47 0 0 0-.84-.24Zm2.9 3.96v-2.28c0-.52.14-.9.43-1.14.14-.12.3-.18.48-.18.09 0 .18.02.28.05l.05-.38-.27-.03c-.38 0-.69.2-.91.58l-.09.17v-.7h-.38v3.91h.4Zm6.58-2.68c0-.62-.22-1.02-.64-1.2-.14-.06-.3-.08-.46-.08-.45 0-.8.22-1.02.68l-.07.16c-.12-.45-.39-.72-.8-.81a1.19 1.19 0 0 0-.26-.03c-.44 0-.78.2-1.02.61l-.06.1v-.65h-.39v3.9h.41V46.5c0-.59.17-1 .52-1.24.15-.1.3-.16.48-.16.37 0 .6.2.72.57.04.13.06.28.06.44v2.63h.4V46.5c0-.6.17-1 .5-1.25.15-.1.31-.15.48-.15.33 0 .55.18.67.53.04.15.07.3.07.48v1.95c0 .5.2.74.58.75.07 0 .13 0 .2-.02l-.02-.31c-.18.02-.3-.04-.33-.19a1.25 1.25 0 0 1-.03-.27v-1.96Z"/>
  <path fill="#FFD335" fill-rule="evenodd" d="M26.54.88 8.16 19.26c13.6 2.54 20.53 7.16 45.25 32.53l2.83 2.83c.34.79.34 1.29.35 2.03v.44a11 11 0 0 1-.7 3.54 7.77 7.77 0 0 1-1.77 2.47c-.7.7-1.55 1.4-2.48 1.77h-.02c-.92.37-1.8.73-2.8.7h-.51c-.9 0-1.89 0-2.68-.35-.94-.4-2.8-1.39-3.53-2.12l-1.42-1.41L13.1 34.1a5 5 0 1 1 7.07-7.07l28.29 28.28.7.71.02.02c.04.08.2.35.2.62s-.06.41-.15.63l-.06.15s-.1.13-.34.37a2.53 2.53 0 0 1-3.28.25l-4.16-4.16L27.6 40.12h.01a1.49 1.49 0 0 1 0-2.11V38l.76-.75-2.11-2.12-.78.75-.34.37a4.52 4.52 0 0 0 0 5.62l-.01.02.35.35L43.5 60.27l.02-.01a5.5 5.5 0 0 0 7.74-7.75l.02-.01-.35-.36-19.52-19.51c-4.98-4.98-15.66-10.5-17.77-10.54a8.93 8.93 0 0 0-5.32 5.04 9 9 0 0 0 1.95 9.8l27.57 27.59 2.12 2.12.03-.03a13.43 13.43 0 0 0 8.36 3.23 12.09 12.09 0 0 0 12.5-12.5 13.45 13.45 0 0 0-3.91-9.09c-22.65-23-28.6-32.17-30.4-47.37Zm12.73 19.8 2.12-2.13 3.53 3.54-2.12 2.12-.7-.7-2.83 2.82-2.12-2.12 2.82-2.83-.7-.7Z" clip-rule="evenodd"/>
</svg>
